<?xml version="1.0" standalone="no"?>
<!DOCTYPE svg PUBLIC "-//W3C//DTD SVG 20010904//EN"
 "http://www.w3.org/TR/2001/REC-SVG-20010904/DTD/svg10.dtd">
<svg version="1.0" xmlns="http://www.w3.org/2000/svg"
 width="300.000000pt" height="226.000000pt" viewBox="0 0 300.000000 226.000000"
 preserveAspectRatio="xMidYMid meet">
<metadata>
Created by potrace 1.10, written by Peter Selinger 2001-2011
</metadata>
<g transform="translate(0.000000,226.000000) scale(0.100000,-0.100000)"
fill="#000000" stroke="none">
<path d="M2190 2167 c-14 -7 -26 -21 -28 -31 -3 -15 0 -17 20 -11 65 21 131
-16 144 -80 l6 -31 -72 4 c-81 5 -178 -11 -230 -38 -70 -36 -130 -124 -130
-191 0 -28 22 -79 31 -73 5 3 6 -1 4 -8 -7 -18 33 -61 47 -52 7 4 8 2 4 -4
-11 -18 49 -42 107 -42 104 0 183 38 238 113 31 43 36 57 18 57 -5 0 -8 -4 -5
-8 3 -5 -1 -9 -8 -9 -8 0 -12 8 -9 21 4 15 2 17 -5 8 -7 -11 -10 -9 -15 7 -6
25 5 27 27 6 8 -8 18 -15 23 -15 12 -1 55 -42 79 -76 22 -30 39 -122 26 -139
-4 -5 -28 -11 -54 -12 -60 -4 -257 -58 -322 -89 -28 -13 -52 -20 -55 -15 -8
12 -50 -5 -58 -24 -3 -9 -29 -29 -57 -45 -28 -16 -66 -44 -84 -61 -18 -17 -32
-28 -32 -25 0 20 34 67 58 80 19 11 22 15 10 16 -15 0 -18 9 -18 45 0 58 21
110 52 126 l23 12 -29 12 c-23 10 -38 9 -74 -1 -24 -8 -48 -11 -53 -8 -5 3 -9
0 -9 -6 0 -8 11 -9 31 -5 24 6 30 4 24 -6 -6 -9 -2 -11 13 -7 12 4 24 3 27 -1
4 -7 -17 -21 -55 -35 -8 -3 0 -5 18 -3 17 2 32 0 32 -5 0 -8 -23 -12 -50 -8
-8 1 -4 -7 10 -19 19 -15 21 -20 9 -21 -9 0 -22 -6 -28 -14 -9 -11 -8 -15 5
-20 21 -8 24 -8 24 5 0 5 -4 7 -10 4 -5 -3 -10 -1 -10 4 0 13 10 14 29 2 10
-6 10 -10 1 -16 -6 -4 -9 -13 -6 -20 4 -11 -16 -18 -89 -30 -30 -5 -44 -17
-33 -29 15 -15 61 -8 55 8 -3 8 7 12 28 13 36 1 37 -7 7 -54 -7 -12 -15 -28
-16 -36 -3 -24 -33 -47 -73 -56 l-38 -9 35 -1 c35 -2 35 -2 11 -15 -23 -13
-23 -14 -5 -19 16 -4 15 -5 -6 -7 -14 -1 -29 -2 -34 -1 -4 1 -5 -10 -2 -25 6
-24 5 -26 -19 -22 -14 3 -28 1 -32 -5 -3 -6 8 -8 31 -5 24 3 33 1 26 -6 -5 -5
-34 -10 -62 -9 -58 1 -75 4 -97 18 -10 5 -16 4 -19 -3 -3 -9 -10 -8 -25 3 -25
17 -41 20 -32 5 3 -5 1 -10 -4 -10 -13 0 -14 20 -3 36 8 12 52 14 52 2 0 -4
11 -8 25 -8 30 0 34 15 5 18 -11 1 -29 3 -40 4 -23 3 -23 3 -9 29 5 11 14 17
20 14 5 -4 8 -1 7 6 -2 6 3 14 11 17 8 3 11 0 7 -7 -4 -6 -2 -11 4 -11 6 0 9
-4 5 -9 -3 -5 4 -12 15 -16 11 -4 17 -11 14 -17 -5 -7 -2 -8 5 -4 9 6 8 13 -5
27 -17 19 -7 28 12 10 5 -6 13 -1 21 15 12 26 7 29 -30 15 -34 -13 -43 -1 -11
15 23 12 30 12 55 -3 22 -13 32 -14 40 -6 9 9 6 11 -12 7 -24 -5 -24 -5 -4 11
19 17 19 17 -10 12 -20 -4 -36 0 -49 11 -11 10 -16 11 -12 5 9 -17 -6 -17 -24
0 -12 10 -12 9 -2 -4 10 -13 5 -21 -27 -47 -32 -26 -40 -29 -45 -16 -9 23 -7
31 3 15 7 -11 11 -9 20 8 7 12 16 19 20 17 4 -3 8 1 8 9 0 13 -3 13 -17 0 -26
-24 -33 -18 -25 21 3 20 3 34 -2 31 -13 -8 -6 142 7 159 11 12 10 13 -6 7 -15
-6 -14 -1 6 28 14 19 26 37 26 42 1 4 2 10 3 15 1 4 5 2 9 -5 5 -8 13 -9 22
-3 13 8 12 10 -3 10 -26 0 -19 57 12 100 35 48 51 64 51 50 0 -7 6 -8 19 0 14
7 21 6 25 -3 3 -6 3 -2 0 10 -4 17 2 25 26 38 30 15 31 17 13 30 -17 13 -17
13 2 12 11 -1 23 -6 27 -12 4 -6 8 -2 8 8 0 9 6 17 13 17 8 0 7 3 -3 10 -9 6
-20 5 -30 -3 -13 -10 -13 -10 -3 4 7 9 23 15 35 13 13 -1 23 -3 23 -4 0 -1 11
-3 24 -6 27 -5 54 -24 46 -32 -2 -3 -11 1 -20 8 -19 16 -19 1 0 -28 14 -20 14
-21 0 -16 -11 5 -14 2 -9 -10 3 -9 1 -16 -6 -16 -6 0 -8 5 -5 10 3 6 2 10 -4
10 -5 0 -13 9 -16 20 -3 11 -11 20 -16 20 -5 0 -3 -13 6 -30 17 -34 19 -44 5
-35 -5 3 -10 1 -10 -5 0 -6 12 -8 30 -5 28 5 30 3 26 -20 -3 -14 0 -25 5 -25
5 0 9 -5 9 -12 0 -6 7 -20 17 -30 11 -13 12 -18 3 -18 -7 0 -19 8 -26 17 -7
10 -16 14 -21 10 -4 -5 0 -13 10 -18 9 -6 23 -16 29 -23 7 -7 21 -11 31 -8 16
4 16 6 3 21 -26 29 -37 94 -27 163 10 73 36 130 84 184 26 30 28 35 10 25 -13
-6 -23 -9 -23 -6 0 3 -23 -6 -50 -20 -31 -16 -48 -30 -44 -37 4 -7 3 -8 -5 -4
-16 10 -41 -12 -35 -29 4 -10 12 -11 31 -4 26 10 43 5 43 -13 0 -6 -6 -6 -15
2 -13 11 -15 9 -13 -11 2 -13 8 -28 13 -32 6 -4 -3 -4 -20 -1 -16 4 -35 7 -42
7 -7 0 -13 4 -13 9 0 4 5 8 10 8 12 0 13 11 0 30 -8 12 -29 -4 -110 -85 -111
-111 -188 -212 -247 -324 -37 -72 -38 -76 -39 -187 -1 -63 2 -117 7 -120 5 -3
9 -12 9 -20 0 -18 -66 -20 -73 -1 -3 9 -7 9 -20 -2 -9 -7 -14 -18 -10 -25 3
-6 3 -8 -2 -4 -4 4 -25 -2 -46 -12 -42 -22 -64 -26 -54 -10 11 18 -14 11 -35
-10 -21 -21 -110 -29 -110 -10 0 6 -7 10 -15 10 -8 0 -15 -4 -15 -10 0 -14
-87 -13 -95 1 -5 7 -16 3 -31 -12 -14 -13 -31 -20 -44 -16 -11 3 -20 1 -20 -3
0 -9 -61 -3 -90 7 -14 6 -34 7 -61 4 -6 0 -9 -7 -6 -13 2 -7 -3 -19 -12 -26
-13 -11 -13 -12 -1 -7 8 4 6 -1 -4 -9 -22 -18 -40 -21 -31 -6 3 6 2 10 -4 10
-5 0 -11 -3 -13 -7 -1 -5 -23 -21 -46 -36 -24 -16 -42 -31 -39 -34 3 -2 19 5
35 17 45 34 96 42 121 19 22 -20 36 -25 26 -9 -3 6 1 7 9 4 9 -3 13 -11 9 -18
-3 -6 3 -3 15 7 11 11 26 16 31 12 6 -3 11 1 11 9 0 9 11 18 25 22 14 3 23 10
20 14 -10 16 133 27 162 12 18 -10 55 -2 54 11 -2 21 1 25 19 20 11 -3 20 -10
20 -15 0 -5 -10 -7 -22 -4 -13 3 -17 3 -10 0 6 -3 10 -10 6 -15 -3 -5 13 -9
35 -9 42 0 53 14 29 38 -9 9 -8 12 6 12 9 0 14 -4 11 -10 -3 -5 -2 -10 4 -10
6 0 8 -7 4 -15 -4 -12 9 -9 53 11 33 15 67 27 77 28 9 0 17 3 17 7 0 17 99 29
175 23 44 -4 117 -7 163 -7 69 0 80 -2 71 -13 -6 -8 -17 -14 -23 -14 -21 0
-81 -70 -81 -95 -1 -21 3 -24 29 -21 17 2 32 8 34 14 2 6 -5 8 -18 5 -18 -5
-21 -2 -18 18 4 30 76 83 94 68 8 -6 14 -4 18 7 5 12 2 15 -10 10 -10 -4 -14
-2 -11 6 2 7 13 12 23 10 14 -2 15 0 6 6 -10 7 -11 14 -1 35 7 15 16 27 21 27
5 0 6 5 3 11 -4 5 5 28 20 50 24 33 30 37 43 27 11 -9 13 -9 9 -1 -4 6 -4 13
0 16 5 2 2 2 -4 1 -23 -6 -14 11 25 48 42 40 126 91 154 93 10 1 26 9 36 18
10 9 26 17 35 17 9 0 17 4 17 8 0 22 245 91 345 97 l70 4 -76 -13 c-91 -16
-244 -60 -285 -81 -16 -8 -35 -15 -41 -15 -7 0 -13 -3 -13 -8 0 -9 -63 -38
-69 -31 -2 2 -8 -7 -13 -21 -6 -15 -12 -20 -15 -12 -6 15 -39 16 -48 1 -4 -6
3 -13 15 -16 l21 -6 -22 -23 c-12 -13 -26 -21 -32 -17 -6 3 -7 1 -3 -6 4 -6 2
-18 -4 -26 -10 -13 -14 -12 -29 5 -11 13 -21 17 -30 11 -10 -6 -5 -13 20 -25
28 -14 35 -15 44 -3 5 8 16 12 24 9 10 -3 11 2 6 18 -6 18 -4 22 8 17 10 -4
14 -1 11 7 -7 19 32 49 66 50 26 1 28 3 14 13 -15 11 -14 13 10 23 36 13 36
13 36 -9 0 -11 5 -23 10 -26 6 -3 10 1 10 9 0 9 6 13 14 10 8 -3 27 1 43 9
l28 15 -48 -3 c-26 -1 -49 1 -52 5 -5 8 68 46 100 52 15 2 21 -3 23 -24 2 -16
-1 -28 -7 -28 -6 0 -8 -7 -5 -15 4 -9 19 -15 38 -16 26 0 28 -2 11 -9 -14 -6
-15 -9 -5 -9 16 -1 40 17 40 30 0 4 -11 6 -24 3 -14 -2 -28 1 -32 7 -5 8 -3 9
7 4 11 -7 12 -6 4 6 -12 16 -21 78 -10 67 4 -4 19 -1 34 6 28 14 121 34 199
42 26 3 62 10 81 14 19 5 38 7 43 4 4 -3 8 -2 8 3 0 4 24 9 53 9 l52 1 -43
-14 c-23 -8 -40 -19 -37 -24 4 -5 -1 -6 -9 -3 -9 3 -27 -5 -43 -20 -15 -14
-37 -26 -48 -26 -15 0 -17 -2 -6 -9 11 -7 10 -10 -5 -15 -11 -3 -28 -19 -39
-35 -10 -16 -22 -28 -25 -26 -3 2 -14 -4 -25 -12 -18 -14 -18 -15 -1 -9 14 5
17 2 12 -10 -3 -8 -6 -19 -6 -23 0 -4 -46 -8 -102 -8 -68 0 -91 2 -68 7 l35 7
-43 2 c-30 1 -44 -4 -48 -14 -7 -18 -70 -20 -77 -2 -4 8 -6 6 -6 -4 -1 -12
-22 -20 -76 -33 -42 -9 -94 -25 -115 -36 -44 -22 -54 -25 -45 -10 3 6 1 10 -4
10 -6 0 -11 -5 -11 -11 0 -5 -5 -7 -12 -3 -8 5 -9 2 -4 -11 7 -20 -18 -55 -41
-55 -8 0 -13 -6 -10 -12 2 -7 -2 -26 -10 -41 -17 -34 -15 -37 12 -26 11 4 14
8 7 8 -7 1 -10 6 -7 11 4 6 12 7 18 4 7 -4 9 -4 5 1 -4 4 0 14 10 22 16 12 16
13 -2 6 -13 -4 -17 -3 -12 5 4 7 17 12 29 13 21 0 21 1 2 9 -18 8 -18 9 -2 9
10 1 16 5 12 11 -6 10 68 47 107 52 14 2 33 10 42 17 9 8 30 14 46 13 17 0 30
2 30 6 0 4 10 8 23 8 12 1 68 5 125 9 103 8 128 0 77 -23 -14 -6 -25 -16 -25
-22 0 -6 14 -1 30 12 17 12 30 26 30 31 0 5 7 6 16 3 8 -3 13 -2 10 3 -3 5 6
8 20 7 22 -1 23 -2 8 -11 -9 -5 -35 -24 -58 -40 -38 -29 -86 -39 -102 -22 -4
4 -18 4 -32 0 -19 -5 -23 -3 -18 8 4 8 1 5 -8 -5 -8 -10 -13 -23 -10 -27 6
-10 84 -7 84 3 0 4 5 8 11 8 5 0 7 -5 3 -11 -4 -8 1 -9 17 -4 l24 7 -23 -22
c-27 -25 -44 -63 -46 -102 -2 -33 -4 -35 -41 -43 -17 -3 -34 -7 -40 -8 -22 -6
-65 -40 -65 -52 0 -7 -6 -18 -14 -25 -8 -6 -12 -19 -9 -28 3 -9 -11 0 -30 21
-19 20 -40 37 -45 37 -6 0 -9 10 -7 21 5 27 11 33 25 24 8 -5 7 -11 -2 -23
-11 -15 -11 -15 4 -4 10 8 19 9 22 3 7 -10 31 -9 43 3 4 4 4 6 -2 5 -14 -4
-55 11 -55 19 0 20 33 53 47 47 13 -4 14 -3 4 9 -14 16 -6 40 10 31 5 -4 9 -1
9 5 0 7 7 5 16 -4 8 -9 20 -14 25 -11 5 4 9 1 9 -4 0 -6 9 -11 21 -11 11 0 18
-3 16 -7 -3 -5 6 -9 20 -9 23 -2 24 -1 6 16 -10 9 -22 15 -26 13 -4 -3 -18 2
-30 10 -42 27 -93 39 -129 28 -29 -8 -30 -9 -8 -10 38 -2 49 -13 39 -39 -5
-13 -13 -20 -19 -17 -5 3 -10 0 -11 -7 0 -7 -5 -4 -10 7 -8 16 -8 15 -4 -8 4
-21 2 -28 -7 -24 -7 2 -12 12 -11 22 1 12 -2 14 -9 7 -6 -6 -18 -8 -27 -6 -9
3 -4 -2 12 -11 22 -13 25 -19 17 -34 -5 -10 -6 -22 -2 -26 4 -5 -12 2 -35 15
-24 13 -41 26 -38 28 2 3 16 -3 29 -12 30 -19 39 -20 34 -4 -4 11 -19 16 -73
23 -16 2 -54 8 -83 13 -52 8 -62 7 -62 -10 0 -4 18 -5 40 -2 26 4 40 3 40 -4
0 -6 6 -9 13 -7 6 3 22 -1 34 -8 12 -6 42 -23 68 -36 55 -30 73 -48 46 -46
-11 1 -28 8 -38 15 -10 8 -7 2 6 -13 27 -30 19 -36 -13 -10 -20 17 -20 16 0
-6 21 -22 22 -22 48 -6 21 14 29 15 41 5 8 -7 13 -16 10 -20 -3 -5 0 -10 6
-12 6 -2 -9 -16 -33 -32 -27 -17 -54 -45 -68 -72 -14 -24 -27 -44 -30 -45 -3
0 -45 -2 -95 -3 -57 -1 -104 -8 -127 -19 -21 -9 -38 -13 -38 -9 0 4 -5 -1 -11
-11 -13 -22 -12 -22 25 -31 25 -6 28 -5 23 13 -3 12 -1 19 4 15 5 -3 9 1 9 8
0 11 2 11 9 0 6 -10 10 -10 21 3 15 18 114 19 103 1 -4 -6 -1 -6 8 1 8 7 28
10 45 8 27 -3 34 2 63 46 17 27 36 49 42 49 6 0 8 4 5 9 -14 22 40 39 55 18 3
-5 9 -1 12 8 4 9 3 13 -3 10 -19 -11 -10 10 14 36 16 18 21 30 15 36 -11 11
47 67 61 58 4 -3 11 2 14 11 3 8 10 13 15 9 5 -3 12 -1 16 5 4 6 10 8 15 5 5
-3 19 9 31 27 13 17 18 28 11 24 -8 -5 -10 -2 -6 8 3 9 10 13 15 10 5 -3 9 2
9 10 0 23 51 21 57 -2 2 -10 14 -22 26 -27 22 -10 25 -33 4 -27 -9 2 -8 0 0
-9 10 -10 15 -9 28 1 9 7 12 16 8 19 -4 3 -14 18 -22 33 -7 15 -33 37 -57 50
l-44 23 48 48 c80 83 130 97 176 50 15 -15 26 -21 24 -13 -4 21 -40 47 -68 52
-14 1 -26 11 -28 20 -5 24 95 128 122 128 16 0 18 2 7 9 -11 7 -9 11 8 20 17
10 24 9 36 -2 8 -8 13 -16 12 -18 -1 -3 4 2 11 10 6 8 10 23 6 33 -4 12 0 18
11 18 10 0 13 -5 9 -12 -4 -7 3 -4 15 7 12 11 22 15 21 10 -4 -21 1 -29 9 -16
6 9 9 5 9 -13 0 -24 -2 -25 -14 -9 -12 17 -14 17 -31 -1 -16 -17 -16 -18 -1
-13 10 3 20 1 24 -5 4 -7 3 -8 -4 -4 -7 4 -12 3 -12 -2 0 -16 13 -22 26 -11 9
8 12 6 9 -8 -2 -10 -4 -19 -5 -20 -2 -2 -3 -8 -4 -13 -2 -15 -28 -30 -40 -23
-5 3 -6 1 -2 -5 4 -6 13 -9 21 -5 21 7 19 1 -7 -21 -18 -16 -20 -16 -15 -2 4
10 1 19 -8 22 -8 4 -15 13 -15 22 0 8 -3 13 -6 9 -4 -3 -1 -20 5 -38 11 -32
11 -32 -9 -14 -21 19 -21 19 -10 -10 6 -17 11 -32 11 -35 -2 -13 26 -4 42 14
18 21 18 21 6 -4 -8 -14 -13 -28 -14 -32 0 -5 -4 -7 -10 -5 -5 1 -9 6 -7 10 1
5 -2 6 -7 2 -12 -7 -3 -35 12 -35 5 0 2 -9 -8 -20 -10 -11 -14 -20 -10 -20 5
0 -2 -11 -15 -25 -12 -13 -27 -22 -31 -19 -4 2 -6 -5 -4 -16 3 -13 0 -18 -7
-14 -7 5 -8 2 -3 -6 6 -9 4 -11 -5 -5 -9 6 -11 4 -5 -6 7 -12 6 -12 -6 0 -11
10 -11 15 -1 18 15 6 16 43 1 43 -5 0 -7 5 -4 10 3 6 0 10 -9 10 -15 0 -16
-16 -3 -37 6 -9 3 -11 -7 -7 -9 3 -16 11 -16 16 0 6 -6 5 -15 -2 -8 -7 -15 -9
-15 -5 0 5 -8 1 -18 -8 -10 -10 -21 -15 -23 -13 -2 3 -15 -4 -29 -16 -14 -11
-19 -17 -12 -13 7 4 21 1 30 -7 15 -12 16 -11 3 5 -7 9 -11 18 -7 18 3 1 15 3
26 4 11 1 21 3 23 5 9 7 36 7 31 -1 -3 -5 1 -9 9 -9 8 0 17 -9 20 -19 3 -14 1
-18 -9 -14 -10 4 -12 0 -7 -13 5 -13 3 -15 -7 -9 -9 6 -11 4 -5 -5 5 -9 4 -11
-4 -6 -6 4 -14 0 -17 -8 -8 -20 -15 -20 -40 -1 -18 14 -18 15 8 11 28 -5 54
15 44 33 -4 6 -14 8 -24 5 -14 -5 -15 -4 -2 5 13 9 13 11 -1 11 -9 0 -19 -9
-22 -21 -3 -12 -10 -18 -15 -15 -11 7 -8 -45 3 -64 5 -9 2 -10 -14 -5 -15 4
-21 2 -21 -9 0 -8 5 -18 11 -22 8 -4 7 -9 -2 -14 -9 -6 -8 -12 5 -25 10 -10
25 -29 33 -42 14 -21 14 -26 2 -34 -10 -7 -7 -8 11 -7 19 2 25 -2 26 -19 1
-15 -3 -20 -15 -16 -12 3 -11 0 3 -11 16 -12 22 -13 28 -3 6 9 8 9 8 -1 0 -7
4 -10 10 -7 6 4 7 -1 3 -11 -4 -12 -2 -15 8 -12 8 3 22 1 31 -3 11 -6 19 -5
24 3 4 6 3 8 -4 4 -6 -3 -13 -2 -16 3 -5 8 15 8 34 1 3 -1 9 -2 13 -1 17 3 48
-21 43 -34 -3 -9 0 -12 10 -8 9 3 14 -2 14 -17 0 -11 4 -19 9 -15 5 3 12 -4
16 -15 4 -11 11 -18 16 -15 5 3 6 -1 3 -9 -3 -8 6 -35 21 -61 16 -27 25 -54
22 -66 -4 -15 -2 -18 7 -10 7 6 16 8 19 5 12 -12 20 49 9 65 -7 9 -23 37 -37
63 -69 130 -101 158 -180 158 -43 0 -56 3 -52 13 3 7 -17 37 -44 66 -56 61
-62 91 -23 112 42 22 154 149 184 209 36 72 70 194 70 253 0 40 3 47 20 47 33
0 22 17 -12 19 -18 1 -45 3 -60 3 -15 1 -24 6 -22 10 3 4 0 8 -5 8 -6 0 -11
-6 -11 -13 0 -10 -15 -12 -57 -10 -42 3 -54 1 -43 -6 12 -9 10 -11 -10 -11
-14 0 -32 5 -40 10 -13 9 -13 11 0 19 8 5 18 7 24 4 5 -3 6 -1 2 5 -5 8 5 12
31 13 113 5 130 4 127 -6 -2 -5 7 -10 21 -10 22 0 25 4 24 35 0 31 -1 32 -9
13 -11 -27 -22 -31 -13 -5 5 14 3 15 -8 5 -7 -7 -17 -13 -22 -13 -4 0 4 11 19
24 l28 23 -18 55 c-15 48 -58 120 -91 153 -31 31 -99 78 -137 95 -38 16 -45
25 -55 63 -16 57 -52 100 -106 126 -50 24 -72 26 -107 8z m133 -53 c-4 -10 2
-17 15 -21 21 -5 39 -46 22 -51 -22 -8 15 -51 59 -68 56 -21 111 -54 92 -54
-15 0 -93 -49 -99 -62 -2 -4 -12 -18 -23 -32 l-20 -25 -34 21 c-19 11 -35 24
-35 30 0 5 -6 6 -12 3 -7 -4 -4 1 6 9 17 14 14 18 -10 15 -4 0 -11 5 -15 13
-7 11 -9 10 -9 -1 0 -11 -4 -9 -15 5 -11 15 -15 16 -16 4 -1 -8 -1 -18 0 -22
0 -5 -4 -8 -10 -8 -6 0 -9 8 -7 18 4 15 1 18 -18 14 -12 -2 -25 -10 -28 -18
-6 -16 5 -19 20 -4 7 7 11 6 11 -3 0 -8 -9 -13 -21 -13 -12 1 -20 8 -18 15 1
7 -3 11 -10 8 -7 -2 -12 -10 -10 -16 1 -8 -3 -9 -15 -3 -24 11 -49 9 -46 -5 1
-6 -5 -17 -14 -25 -10 -8 -14 -8 -10 -1 4 6 3 14 -2 18 -6 3 -8 -4 -6 -16 3
-13 0 -28 -6 -36 -9 -10 -7 -13 5 -13 13 0 15 -4 8 -17 -7 -13 -4 -23 11 -38
11 -11 17 -14 13 -7 -4 6 -3 12 2 12 6 0 12 -6 15 -14 4 -9 15 -12 33 -8 18 3
25 1 20 -6 -3 -6 20 3 51 20 32 17 62 37 66 45 7 12 12 10 23 -11 13 -26 10
-56 -7 -56 -4 0 -6 -6 -3 -14 3 -8 1 -17 -5 -21 -17 -10 -13 31 4 45 8 7 15
17 15 23 0 5 -11 -2 -24 -16 -16 -17 -26 -22 -29 -14 -3 9 -10 9 -30 -2 -25
-13 -28 -44 -3 -35 7 3 19 -3 27 -12 13 -16 12 -16 -8 -5 -19 10 -23 9 -23 -3
0 -20 -17 -29 -26 -15 -4 8 -3 9 4 5 7 -4 12 -2 12 3 0 6 -7 12 -15 12 -46 4
-50 3 -48 -15 1 -12 -2 -15 -9 -8 -6 6 -17 8 -24 5 -8 -3 -21 0 -29 7 -13 11
-18 10 -30 -6 -11 -16 -16 -17 -27 -6 -11 11 -10 12 5 7 12 -5 17 -2 17 10 0
10 -5 13 -12 9 -6 -4 -8 -3 -5 3 4 6 0 16 -8 23 -12 10 -15 10 -15 0 0 -15 -7
-11 -11 5 -1 6 -10 16 -21 23 -10 8 -17 19 -15 25 2 6 -5 20 -15 31 -10 11
-18 24 -18 29 0 5 8 1 18 -10 9 -10 14 -14 11 -8 -20 34 -17 64 9 106 52 82
174 126 317 116 l83 -6 -8 35 c-4 19 -20 50 -34 69 -33 43 -34 61 -2 39 15 -9
23 -21 19 -30z m234 -224 c14 -11 21 -20 16 -20 -6 0 -16 7 -23 15 -16 19 -39
19 -46 0 -7 -17 14 -48 26 -40 12 7 72 14 65 7 -2 -3 1 -12 8 -20 9 -13 9 -14
0 -8 -7 4 -13 2 -13 -3 0 -6 -6 -11 -14 -11 -22 0 -30 -20 -14 -36 12 -12 17
-12 33 2 11 8 14 13 8 9 -8 -4 -11 -1 -7 8 4 12 10 12 29 3 19 -9 21 -13 9
-19 -24 -13 -16 -26 13 -21 15 3 25 2 21 -1 -3 -4 -13 -8 -22 -9 -9 -1 -15 -6
-14 -12 2 -5 7 -8 11 -6 5 1 6 -2 2 -8 -3 -5 -1 -10 5 -10 7 0 9 -7 6 -16 -4
-12 -1 -14 14 -9 11 4 20 3 20 -1 0 -17 -35 -44 -59 -45 -23 0 -24 -1 -6 -9
14 -5 4 -8 -35 -9 -62 -1 -80 -3 -97 -14 -7 -5 -10 1 -9 18 2 13 -1 22 -5 19
-5 -3 -9 7 -9 21 0 20 8 29 35 41 47 19 81 22 78 7 -2 -7 1 -13 6 -13 5 0 11
-10 14 -21 4 -15 11 -20 22 -15 9 3 14 2 11 -2 -3 -5 1 -9 9 -9 10 0 11 5 5
17 -5 10 -6 21 -2 26 4 5 -1 2 -11 -6 -17 -12 -18 -12 -15 5 2 12 -3 20 -12
20 -8 1 -14 7 -12 14 4 18 -62 10 -106 -13 -32 -17 -33 -17 -23 2 7 14 7 19
-4 19 -8 0 -11 -5 -8 -11 4 -6 -1 -5 -10 3 -12 9 -14 17 -7 26 5 6 8 14 5 17
-3 3 13 13 35 23 22 10 40 22 40 27 0 13 -9 10 -53 -19 -45 -30 -73 -40 -62
-23 3 5 1 10 -4 10 -6 0 -11 5 -11 11 0 5 4 7 10 4 5 -3 7 0 5 7 -6 16 37 60
80 82 38 20 42 20 72 -4z m-277 -50 c12 -7 11 -12 -5 -32 -45 -51 -79 -69
-137 -70 -47 0 -71 18 -64 48 3 12 1 25 -4 27 -6 3 -5 4 2 3 7 -2 31 5 53 15
43 20 130 25 155 9z m-805 -259 c-14 -26 -32 -55 -41 -62 -15 -12 -15 -10 1
21 19 38 54 90 60 90 2 0 -7 -22 -20 -49z m-53 -113 c-16 -16 -15 -29 2 -22
14 5 18 -25 5 -36 -13 -10 -19 -49 -9 -55 6 -3 10 4 11 17 1 14 3 17 6 7 6
-24 -14 -69 -32 -69 -8 0 -15 9 -15 20 0 11 -4 20 -10 20 -5 0 -10 10 -9 23 0
12 3 16 6 10 7 -18 20 -16 27 3 4 10 0 21 -9 28 -21 15 -4 66 22 66 13 0 14
-3 5 -12z m-37 -168 c-3 -4 3 -14 13 -21 9 -7 14 -9 10 -5 -10 11 10 36 27 36
11 0 11 -6 2 -30 -8 -22 -8 -38 0 -59 11 -30 11 -30 -50 -59 -4 -2 -7 9 -6 25
1 15 0 33 -1 38 -2 6 0 18 5 29 6 13 3 21 -8 28 -10 5 -17 18 -17 30 0 17 3
18 15 8 8 -7 13 -16 10 -20z m11 -168 c-3 -6 -19 -8 -35 -6 -16 3 -32 1 -35
-5 -3 -5 -15 -7 -26 -4 -35 9 -12 21 40 19 27 0 50 3 50 8 0 5 3 7 6 3 3 -3 3
-10 0 -15z m-705 -76 c-9 -11 -7 -15 11 -21 13 -4 37 -7 53 -7 l30 1 -30 -8
c-16 -4 -29 -13 -27 -20 1 -7 -2 -10 -7 -7 -5 4 -12 2 -16 -4 -4 -6 -11 -8
-16 -4 -6 4 -3 14 7 25 9 10 12 19 7 19 -6 0 -16 -7 -23 -15 -7 -8 -17 -15
-23 -15 -7 0 -7 4 1 12 7 7 12 20 12 29 0 15 10 24 29 28 2 1 -2 -5 -8 -13z"/>
<path d="M2166 1964 c-12 -31 -7 -36 32 -29 46 8 63 22 42 35 -24 15 -67 12
-74 -6z"/>
<path d="M2345 1961 c-10 -17 23 -39 49 -34 21 4 24 8 15 24 -10 20 -53 26
-64 10z"/>
<path d="M2020 1905 c-18 -19 -21 -28 -12 -37 9 -9 18 -6 37 12 27 25 33 50
12 50 -8 0 -24 -11 -37 -25z"/>
<path d="M2301 1907 c-9 -12 -8 -16 4 -21 9 -3 13 -10 10 -16 -3 -5 3 -10 14
-10 18 0 25 -9 23 -31 -1 -3 6 -6 14 -6 18 0 18 11 -1 27 -13 11 -13 15 -3 21
10 6 10 13 2 26 -14 23 -47 28 -63 10z"/>
<path d="M1977 1793 c-13 -12 -7 -51 8 -56 19 -8 28 9 21 39 -6 24 -17 30 -29
17z"/>
<path d="M2053 1693 c0 -26 27 -43 49 -32 21 11 24 35 6 37 -7 0 -22 3 -34 7
-16 5 -21 2 -21 -12z"/>
<path d="M1646 1716 c4 -11 0 -14 -13 -12 -13 3 -19 -2 -19 -14 0 -10 4 -16 8
-13 5 2 7 -7 4 -21 -3 -15 -1 -24 3 -21 9 5 34 -19 26 -26 -2 -3 6 -11 18 -18
20 -13 21 -13 9 1 -10 13 -10 17 4 22 9 3 21 3 26 -1 7 -4 8 -1 3 6 -4 7 -16
11 -26 8 -11 -3 -19 -1 -19 5 0 5 -4 7 -9 3 -12 -7 -24 12 -27 45 -3 24 -2 24
11 6 8 -10 12 -23 8 -29 -3 -6 -1 -7 5 -3 8 5 9 13 3 24 -4 9 -6 22 -4 29 2 6
-1 14 -6 18 -7 3 -8 0 -5 -9z"/>
<path d="M1766 1721 c-3 -4 -18 -7 -33 -5 -14 1 -35 -3 -45 -10 -15 -11 -16
-15 -4 -32 14 -19 14 -19 13 0 -3 26 47 40 65 19 10 -12 9 -14 -8 -11 -12 2
-18 -2 -16 -11 2 -8 -3 -11 -11 -8 -7 3 -14 -1 -14 -8 0 -7 8 -10 19 -7 10 2
18 8 18 13 0 5 10 9 21 9 18 0 19 3 9 15 -7 8 -10 22 -6 30 6 16 1 21 -8 6z"/>
<path d="M1542 1682 c-32 -42 -39 -86 -10 -68 16 9 16 11 2 16 -13 5 -14 8 -2
17 7 6 20 9 29 8 9 -2 16 3 16 11 0 11 -3 11 -15 1 -13 -10 -14 -9 -2 10 8 12
18 21 23 20 5 -1 11 3 14 9 9 25 -31 8 -55 -24z"/>
<path d="M1625 1590 c11 -18 16 -62 6 -56 -4 3 -8 -1 -8 -9 0 -21 18 -19 71
11 56 31 61 38 38 55 -15 13 -16 12 -3 -3 15 -21 2 -24 -19 -5 -12 10 -12 9
-2 -5 18 -23 -7 -30 -33 -9 -19 15 -19 15 -5 -2 12 -16 12 -20 0 -27 -16 -10
-35 13 -26 29 3 5 -2 15 -11 22 -14 12 -16 12 -8 -1z"/>
<path d="M1549 1581 c11 -7 9 -10 -8 -16 -25 -8 -28 -23 -3 -21 9 0 17 -3 17
-9 0 -14 -37 -7 -47 8 -6 9 -8 9 -8 -1 0 -7 8 -16 18 -19 9 -4 20 -11 24 -17
5 -7 13 -5 24 6 15 14 15 19 4 33 -11 13 -11 18 -1 24 10 6 9 10 -4 15 -24 9
-32 7 -16 -3z"/>
<path d="M1760 1553 c-30 -12 -35 -43 -7 -43 7 0 6 4 -3 10 -12 7 -8 11 17 16
18 4 30 10 27 15 -6 10 -12 10 -34 2z"/>
<path d="M1687 1519 c-9 -6 -15 -14 -12 -19 3 -5 -8 -7 -25 -5 -17 2 -28 0
-25 -5 5 -8 18 -8 70 -1 6 1 3 6 -5 12 -12 9 -11 10 6 6 13 -3 21 1 21 9 0 16
-6 17 -30 3z"/>
<path d="M1713 1468 c1 -10 9 -26 19 -34 18 -18 42 -10 34 11 -2 7 2 16 10 19
25 10 5 25 -31 24 -26 -1 -33 -5 -32 -20z"/>
<path d="M1605 1469 c-4 -6 -14 -8 -22 -5 -13 5 -73 -18 -73 -28 0 -8 29 0 44
13 30 25 26 5 -6 -27 -17 -18 -28 -36 -24 -39 4 -4 11 -1 16 7 7 11 9 10 7 -7
0 -12 -6 -21 -12 -20 -5 1 -9 -4 -7 -10 3 -18 -15 -16 -21 1 -3 8 -4 27 -1 43
4 20 2 25 -6 17 -6 -6 -12 -21 -15 -33 -2 -13 -9 -28 -14 -35 -6 -8 -6 -17 1
-26 8 -13 9 -12 5 2 -3 9 0 22 8 28 11 9 15 7 21 -15 l6 -26 28 31 c17 19 31
27 35 21 7 -12 25 -4 60 24 20 16 20 16 -2 10 -13 -4 -23 -1 -26 7 -2 7 -3 6
-2 -2 1 -9 -3 -20 -9 -26 -16 -15 -48 27 -35 47 8 12 11 12 20 -1 8 -12 9 -10
4 9 -6 20 -4 23 9 18 12 -5 15 -3 10 5 -5 7 -2 9 9 5 11 -4 14 -2 10 9 -6 17
-10 17 -18 3z"/>
<path d="M2320 1460 c-16 -5 -19 -8 -8 -9 11 -1 15 -6 12 -16 -5 -12 -11 -12
-27 -4 -20 10 -21 10 -6 -5 8 -9 33 -19 55 -21 25 -3 31 -2 16 3 -13 4 -23 10
-23 15 1 10 2 10 34 2 18 -5 33 -3 40 5 10 10 8 12 -6 7 -10 -4 -16 -3 -13 2
4 6 -39 34 -47 30 -1 -1 -13 -5 -27 -9z"/>
<path d="M2592 1432 c-7 -9 -10 -11 -7 -4 3 6 3 12 -2 12 -32 -1 -40 -55 -9
-55 13 0 22 10 27 29 10 36 7 41 -9 18z"/>
<path d="M2640 1439 c-12 -9 -12 -10 4 -5 15 5 17 4 7 -8 -9 -11 -8 -15 4 -20
8 -3 15 -1 15 5 0 6 6 7 13 3 7 -5 6 0 -3 11 -8 10 -10 16 -3 12 6 -4 14 -4
17 1 7 12 -37 13 -54 1z"/>
<path d="M2302 1385 c17 -18 63 -24 78 -9 5 5 -5 9 -23 10 -18 0 -41 4 -52 9
-19 7 -19 7 -3 -10z"/>
<path d="M2523 1353 c-15 -5 -18 -49 -4 -57 5 -3 14 1 21 9 7 8 16 13 20 10 5
-3 7 3 5 12 -2 10 -4 21 -4 26 -1 8 -19 8 -38 0z"/>
<path d="M1656 1335 c-21 -7 -43 -19 -47 -27 -13 -20 0 -23 14 -3 8 10 27 18
44 19 16 0 30 7 30 14 0 6 -1 12 -1 12 -1 -1 -19 -7 -40 -15z"/>
<path d="M2586 1342 c-3 -5 -3 -17 -2 -28 2 -10 -2 -25 -8 -33 -8 -11 -8 -13
1 -8 6 4 14 3 18 -3 3 -5 -1 -10 -9 -10 -8 0 -17 -4 -20 -8 -3 -5 9 -8 26 -8
28 1 56 26 28 26 -6 0 -8 5 -5 10 3 6 0 12 -7 15 -8 3 -14 15 -15 25 -1 13 2
18 9 14 7 -4 8 -2 4 4 -8 14 -13 15 -20 4z"/>
<path d="M1685 1300 c-4 -6 -10 -8 -14 -6 -4 3 -13 0 -21 -5 -12 -8 -11 -9 5
-7 11 2 19 -2 18 -9 -2 -8 4 -10 14 -6 11 4 14 3 9 -5 -12 -19 1 -14 29 12 21
20 23 25 9 30 -23 9 -42 7 -49 -4z"/>
<path d="M2428 1279 c-21 -12 -24 -39 -5 -39 22 0 51 26 43 38 -9 14 -16 15
-38 1z"/>
<path d="M2000 1224 c0 -18 17 -27 25 -13 4 5 13 8 21 5 7 -3 16 -1 19 3 2 5
-11 11 -30 13 -23 3 -35 0 -35 -8z"/>
<path d="M2597 1222 c5 -14 3 -15 -8 -4 -17 16 -26 15 -26 -3 0 -8 4 -12 8 -9
4 2 9 -1 11 -7 2 -6 11 -2 21 9 15 17 16 20 3 25 -11 4 -13 1 -9 -11z"/>
<path d="M1615 1211 c-9 -15 12 -22 42 -15 25 7 25 8 8 15 -28 11 -43 11 -50
0z"/>
<path d="M2352 1208 c-19 -19 -14 -38 11 -38 28 0 47 17 40 36 -6 17 -35 18
-51 2z"/>
<path d="M1915 1160 c-49 -7 -37 -14 18 -10 16 1 27 -4 27 -12 1 -9 4 -9 13 3
7 9 19 18 27 22 19 7 -20 6 -85 -3z"/>
<path d="M1540 1150 c0 -21 2 -25 13 -22 5 2 14 -3 18 -10 6 -10 11 -10 20 -1
8 8 4 15 -20 27 -17 9 -31 12 -31 6z"/>
<path d="M714 1138 c-4 -6 -2 -14 4 -16 7 -2 12 -10 12 -18 0 -9 -5 -12 -11
-8 -7 4 -10 1 -7 -7 9 -26 33 -16 31 14 -1 15 3 27 8 27 6 0 7 5 4 10 -8 14
-32 13 -41 -2z"/>
<path d="M1866 1132 c-13 -12 -4 -22 32 -31 46 -14 69 -14 57 -2 -16 15 -83
40 -89 33z"/>
<path d="M1320 1065 c7 -9 9 -22 5 -32 -5 -10 -9 -30 -10 -46 -2 -26 -1 -27
16 -11 24 21 24 31 2 37 -17 4 -17 5 0 6 9 0 17 6 17 12 0 18 -20 49 -32 49
-7 0 -6 -5 2 -15z"/>
<path d="M2043 1054 c0 -10 7 -14 19 -11 10 3 18 2 18 -3 0 -4 6 -10 14 -13
10 -4 12 0 9 14 -3 10 -9 17 -13 14 -5 -3 -11 -1 -15 5 -10 16 -32 12 -32 -6z"/>
<path d="M1224 1036 c-9 -22 4 -36 29 -32 30 4 30 40 -1 44 -13 2 -24 -3 -28
-12z"/>
<path d="M1797 1043 c-4 -3 -7 -12 -7 -19 0 -16 46 -24 60 -10 8 8 9 7 5 -5
-4 -10 -2 -20 3 -23 15 -9 23 21 9 32 -7 5 -24 9 -38 8 -18 -1 -25 3 -22 11 6
14 0 17 -10 6z"/>
<path d="M1647 1033 c-13 -12 -7 -24 10 -21 10 2 18 -2 18 -9 0 -6 3 -15 8
-19 13 -13 7 -27 -7 -15 -11 10 -16 8 -21 -8 -5 -17 -12 -20 -38 -16 l-32 6
27 -23 c38 -33 48 -59 48 -122 0 -31 4 -56 9 -56 4 0 7 33 6 73 -2 40 -7 71
-13 70 -5 -1 -9 9 -9 23 0 37 26 42 53 11 12 -14 24 -24 27 -21 2 3 7 -4 10
-15 3 -12 -1 -22 -9 -25 -8 -3 -14 -16 -13 -28 0 -15 3 -18 6 -8 11 28 43 35
43 9 0 -6 -4 -7 -10 -4 -5 3 -10 2 -10 -3 0 -21 33 -22 52 -2 10 11 14 20 8
20 -6 0 -13 -7 -16 -15 -4 -8 -9 -15 -13 -15 -10 0 -7 32 4 50 8 13 6 13 -8 1
-20 -16 -23 -2 -4 19 10 12 9 12 -6 0 -16 -12 -18 -11 -13 13 4 21 0 27 -26
36 -17 6 -28 14 -25 18 4 3 0 15 -10 25 -15 17 -5 27 11 11 4 -5 11 -8 14 -8
18 -1 52 -27 47 -35 -3 -6 0 -8 7 -5 8 3 27 -17 47 -47 l33 -51 -23 -18 c-13
-10 -32 -21 -41 -25 -10 -3 -18 -10 -18 -15 0 -16 16 -10 50 21 34 30 54 34
30 5 -8 -10 -9 -15 -1 -15 6 0 11 5 11 10 0 18 17 10 30 -15 7 -14 15 -24 17
-22 5 6 -21 67 -30 67 -4 0 -5 5 -1 12 4 6 3 8 -4 4 -7 -4 -10 1 -9 14 1 11 4
21 7 21 40 8 70 7 64 -3 -4 -6 -3 -8 4 -4 6 3 15 -2 21 -11 6 -10 11 -13 11
-7 0 6 -3 14 -7 18 -5 4 -8 11 -8 16 0 4 -16 24 -36 43 -27 26 -40 32 -50 25
-11 -8 -10 -9 4 -4 15 5 22 -4 18 -26 -1 -8 15 -12 32 -9 4 0 7 -4 7 -9 0 -6
-3 -10 -7 -11 -5 0 -20 -2 -35 -4 -15 -2 -32 3 -39 11 -6 8 -8 14 -5 14 4 0 0
7 -8 16 -9 8 -13 21 -9 27 3 7 3 9 -2 5 -4 -4 -15 -2 -23 5 -13 10 -14 8 -7
-13 7 -22 6 -23 -8 -12 -9 8 -13 20 -10 28 3 8 0 14 -7 14 -6 0 -8 -4 -5 -10
11 -17 -5 -11 -41 16 -20 16 -34 21 -34 14 0 -9 -5 -8 -18 3 -10 10 -22 14
-25 10z m200 -137 l15 -31 -31 35 c-32 37 -42 61 -15 39 8 -7 22 -26 31 -43z"/>
<path d="M847 1006 c-8 -21 20 -48 42 -41 17 5 19 10 11 24 -11 22 -47 33 -53
17z"/>
<path d="M984 995 c-10 -26 13 -42 32 -23 15 15 15 17 -5 27 -17 10 -22 9 -27
-4z"/>
<path d="M1102 988 c3 -26 36 -37 49 -17 10 17 -8 39 -33 39 -14 0 -19 -6 -16
-22z"/>
<path d="M760 979 c0 -5 4 -8 9 -4 19 11 23 -36 5 -56 -16 -18 -16 -19 -1 -13
10 3 17 1 17 -5 0 -6 7 -11 16 -11 14 0 14 -2 3 -16 -8 -10 -15 -12 -17 -5 -2
6 -9 11 -15 11 -6 0 -24 12 -40 28 -23 20 -28 22 -23 8 5 -14 2 -17 -9 -12 -9
3 -13 2 -10 -4 3 -6 -2 -10 -12 -10 -15 0 -16 -2 -3 -10 10 -6 16 -6 18 0 5
13 49 13 57 -1 10 -15 1 -20 -39 -22 -20 -1 -36 -6 -36 -11 0 -4 15 -5 34 -2
24 5 37 2 46 -9 7 -8 11 -15 9 -16 -2 0 -26 -1 -54 -2 -27 -1 -56 -6 -62 -10
-7 -5 -17 -6 -21 -3 -4 2 -14 1 -21 -3 -9 -6 -10 -11 -2 -15 6 -4 11 -2 11 4
0 6 11 5 30 -5 34 -18 40 -18 40 -5 0 6 -10 10 -22 10 -39 0 -10 12 36 15 29
2 46 -1 46 -8 0 -6 7 -1 16 11 12 18 13 26 4 37 -10 12 -9 15 3 15 17 0 32
-43 17 -48 -6 -2 -10 -8 -10 -14 0 -6 7 -8 15 -4 8 3 15 1 15 -4 0 -5 7 -7 15
-4 8 4 15 12 15 20 0 19 67 18 116 -2 21 -9 81 -18 134 -21 52 -3 101 -10 108
-15 6 -6 12 -25 12 -44 0 -25 7 -38 29 -53 16 -12 37 -21 48 -21 13 0 15 -2 5
-9 -10 -6 -2 -13 28 -25 22 -9 38 -21 35 -26 -3 -6 -1 -10 4 -10 6 0 11 6 11
13 0 8 4 7 10 -3 8 -13 10 -13 10 2 0 9 -5 20 -10 23 -6 4 -7 11 -4 17 4 7 2
8 -5 4 -6 -4 -9 -13 -5 -19 3 -7 -2 -3 -10 7 -9 11 -16 23 -16 28 0 4 -7 5
-15 2 -8 -4 -15 -1 -15 5 0 6 -3 10 -7 10 -18 -3 -36 2 -30 7 3 4 -4 15 -16
24 -13 10 -23 30 -24 46 -2 27 -1 27 7 7 5 -13 15 -23 22 -23 9 0 9 3 2 8 -14
9 -28 43 -25 61 2 12 0 13 -12 2 -11 -9 -17 -9 -22 -1 -4 6 -12 9 -19 7 -6 -2
-21 9 -34 24 -21 26 -22 30 -7 35 13 5 14 8 3 15 -20 13 -28 11 -21 -8 5 -12
3 -14 -7 -8 -8 5 -11 4 -7 -3 9 -13 -2 -42 -15 -42 -5 0 -7 4 -3 9 3 5 1 13
-5 16 -6 4 -10 3 -9 -2 5 -27 -2 -34 -17 -18 -15 15 -18 15 -34 0 -17 -15 -18
-15 -16 2 1 14 -7 19 -36 21 -38 3 -58 26 -31 36 11 5 14 2 9 -11 -5 -15 -4
-15 9 1 8 11 15 27 14 35 0 12 -2 11 -8 -3 -6 -15 -10 -16 -16 -7 -6 10 -9 10
-15 1 -5 -9 -11 -8 -21 2 -21 21 -47 28 -72 20 -27 -10 -59 -4 -51 9 10 17 -5
59 -21 59 -8 0 -15 -5 -15 -11z m157 -103 c0 -6 -10 -12 -21 -13 -12 -1 -32
-4 -46 -7 -14 -2 -29 -5 -35 -6 -5 -1 -1 -5 10 -10 19 -8 19 -9 -2 -9 -25 -1
-30 14 -10 33 16 17 30 21 70 22 19 0 34 -4 34 -10z"/>
<path d="M720 966 c0 -3 5 -17 10 -32 10 -26 11 -26 25 -8 12 17 12 21 -2 32
-17 12 -33 16 -33 8z"/>
<path d="M655 940 c-19 -7 -19 -8 -2 -15 15 -6 16 -10 5 -16 -10 -7 -9 -9 3
-9 9 0 19 9 22 20 6 24 -2 30 -28 20z"/>
<path d="M442 928 c-7 -7 -12 -19 -12 -28 0 -17 -21 -31 -74 -50 -18 -7 -26
-15 -23 -24 4 -11 -4 -9 -29 6 -19 11 -37 24 -40 29 -3 5 -10 9 -16 9 -6 0 -8
-3 -5 -6 3 -4 0 -16 -8 -28 -29 -41 -8 -116 32 -116 6 0 16 -7 23 -15 10 -12
10 -15 -3 -15 -8 0 -23 -3 -33 -7 -10 -4 -15 -2 -11 3 4 7 -12 8 -43 4 -50 -6
-79 -20 -44 -20 16 0 17 -2 4 -11 -13 -9 -13 -10 0 -6 8 2 14 10 13 16 -2 6 4
11 12 11 8 0 15 -5 15 -11 0 -27 146 15 154 44 2 11 10 16 15 12 6 -3 9 -11 6
-16 -4 -5 1 -9 10 -9 10 0 14 5 10 13 -4 6 2 2 13 -10 11 -13 33 -28 48 -33
23 -9 25 -13 14 -20 -8 -6 -19 -10 -25 -10 -5 0 -3 5 5 10 8 5 11 10 5 10 -5
0 -17 -5 -25 -11 -11 -8 -12 -12 -2 -16 6 -2 10 -8 8 -12 -3 -4 8 -6 23 -3 16
2 50 24 75 48 48 45 84 61 50 22 -18 -20 -17 -20 14 2 17 13 32 27 32 31 0 11
-30 32 -37 25 -3 -3 0 -6 8 -6 8 0 -11 -13 -41 -29 -30 -15 -54 -34 -52 -41 2
-8 -3 -10 -13 -6 -9 3 -19 6 -21 6 -3 0 -3 4 0 8 3 5 -4 8 -16 8 -12 -1 -23 6
-26 14 -5 13 -3 13 11 1 10 -7 17 -12 18 -10 8 38 7 41 -12 36 -10 -3 -35 -1
-55 3 -45 10 -97 -5 -74 -21 13 -9 13 -10 0 -6 -8 2 -15 11 -15 20 0 8 -4 19
-8 23 -4 4 -7 2 -7 -4 0 -7 -8 -12 -17 -12 -16 0 -16 2 -3 11 12 9 11 10 -7 6
-20 -4 -21 -2 -12 21 5 14 8 31 5 38 -5 12 22 29 32 19 3 -3 0 -5 -6 -5 -16 0
-15 -11 3 -34 14 -18 15 -18 47 2 49 30 140 32 172 5 20 -17 27 -19 41 -10 14
11 12 14 -17 30 l-33 19 25 -21 c25 -20 25 -20 2 -14 -12 3 -27 14 -33 25 -6
12 -17 17 -28 13 -12 -3 -18 0 -18 10 0 8 8 15 17 15 10 0 32 13 51 29 25 23
40 28 66 25 18 -2 33 0 33 6 0 10 -33 15 -79 12 -13 -1 -32 -10 -43 -22 -10
-11 -25 -20 -33 -20 -18 0 -18 5 -5 31 12 22 9 24 -8 7z"/>
<path d="M1220 915 c0 -8 9 -24 20 -35 21 -21 28 -46 10 -35 -5 3 -10 1 -10
-6 0 -9 -4 -9 -15 1 -8 6 -20 8 -26 4 -8 -5 -10 -2 -6 9 3 8 0 18 -8 21 -10 3
-12 0 -8 -11 4 -10 2 -14 -4 -10 -5 3 -10 -1 -10 -9 0 -12 7 -14 28 -10 23 4
27 2 22 -11 -5 -13 -3 -14 15 -4 20 10 22 9 23 -11 0 -13 3 -17 6 -10 2 6 9
10 13 7 5 -3 11 -1 15 5 3 6 0 13 -9 16 -8 3 -12 12 -9 20 3 8 -2 23 -11 33
-9 10 -13 21 -9 26 5 4 2 5 -4 1 -9 -5 -11 -2 -7 8 3 9 1 16 -5 16 -6 0 -11
-7 -11 -15z"/>
<path d="M1295 912 c14 -10 17 -32 5 -32 -5 0 -10 5 -10 10 0 6 -5 10 -11 10
-8 0 -8 -5 1 -15 7 -8 10 -21 7 -30 -4 -8 -2 -17 3 -20 5 -3 16 11 25 31 12
30 13 39 3 46 -17 10 -37 11 -23 0z"/>
<path d="M994 888 c-3 -5 -2 -8 3 -7 25 4 34 -2 28 -21 -5 -16 -2 -19 14 -17
11 2 24 7 28 12 5 4 2 5 -4 1 -8 -4 -17 2 -24 17 -11 23 -35 32 -45 15z"/>
<path d="M1459 893 c-20 -5 -40 -46 -30 -61 4 -7 14 0 26 19 11 16 26 27 33
24 15 -6 57 14 48 22 -3 3 -12 0 -20 -6 -10 -8 -16 -9 -21 -1 -6 10 -9 11 -36
3z"/>
<path d="M533 876 c-9 -11 -6 -16 14 -27 22 -12 27 -11 39 5 7 11 11 23 8 27
-8 14 -48 10 -61 -5z"/>
<path d="M1572 880 c2 -8 -3 -14 -9 -12 -7 1 -13 -7 -13 -19 0 -11 -5 -17 -10
-14 -6 4 -10 3 -9 -2 4 -18 -21 -62 -38 -66 -15 -4 -15 -5 3 -6 11 0 21 -7 21
-15 0 -8 -9 -14 -19 -13 -10 1 -18 5 -18 9 0 4 -6 5 -14 2 -8 -3 -13 -11 -10
-18 5 -14 -52 -16 -73 -3 -7 5 -13 4 -13 -1 0 -6 7 -12 15 -16 8 -3 12 -12 9
-19 -4 -10 3 -14 23 -13 27 1 63 25 56 37 -1 4 4 9 12 13 16 6 21 -9 6 -18 -5
-3 -8 -14 -6 -24 1 -9 0 -11 -2 -4 -3 6 -9 12 -14 12 -6 0 -5 -8 1 -20 6 -11
16 -20 21 -20 6 0 8 -7 5 -16 -4 -9 -1 -24 6 -33 7 -9 8 -13 4 -9 -5 5 -16 -1
-24 -13 -10 -15 -17 -17 -27 -9 -10 8 -15 8 -20 0 -4 -6 -14 -9 -22 -6 -11 4
-13 2 -9 -9 3 -8 1 -15 -4 -15 -6 0 -10 5 -10 11 0 5 -4 8 -9 4 -5 -3 -13 -1
-16 5 -5 8 -12 7 -23 -2 -10 -8 -13 -9 -9 -1 4 6 3 14 -3 18 -5 3 -10 -3 -10
-14 0 -12 -5 -21 -11 -21 -6 0 -8 7 -5 16 6 16 6 16 -52 -1 -13 -4 -29 -1 -37
5 -12 10 -15 10 -16 -1 0 -8 -4 -5 -9 6 -8 20 -9 19 -9 -1 -1 -16 -10 -24 -33
-29 -18 -4 -36 -7 -40 -6 -4 0 -5 -6 -2 -13 5 -14 -25 -37 -56 -42 -21 -4 -51
-44 -43 -57 5 -8 8 -7 11 1 2 7 13 12 25 12 12 0 42 16 66 35 53 42 56 43 196
49 61 2 124 10 140 17 17 7 33 12 36 11 4 -1 15 8 24 18 10 11 24 20 32 20 7
0 13 7 13 16 0 8 -4 13 -10 9 -5 -3 -16 8 -25 24 -17 33 -19 45 -7 37 4 -2 9
7 10 21 1 15 10 35 20 46 9 11 11 17 4 13 -25 -15 16 99 42 116 8 5 7 11 -2
20 -11 11 -13 10 -10 -2z"/>
<path d="M2080 840 c0 -5 5 -10 10 -10 7 0 7 -7 0 -22 -10 -21 -10 -22 3 -5
14 17 16 17 35 -8 19 -24 50 -36 36 -13 -4 7 -3 8 4 4 7 -4 12 -13 12 -21 0
-9 8 -11 23 -8 l22 5 -22 -16 c-12 -9 -29 -13 -40 -10 -15 6 -16 5 -5 -7 10
-11 17 -11 31 -2 16 10 20 9 25 -4 4 -8 1 -23 -6 -32 -11 -14 -11 -14 3 -4 16
13 29 8 29 -9 0 -5 -4 -7 -9 -4 -12 8 -19 -13 -13 -41 4 -19 7 -21 19 -12 11
10 13 10 11 0 -2 -7 6 -16 17 -21 19 -7 20 -3 20 56 1 51 -3 65 -19 76 -10 7
-33 25 -50 40 -27 22 -121 78 -132 78 -2 0 -4 -4 -4 -10z"/>
<path d="M2420 838 c0 -9 5 -20 10 -23 6 -4 8 -10 5 -15 -3 -5 0 -12 6 -16 8
-4 9 -3 5 4 -4 7 -2 12 3 12 6 0 11 -5 11 -12 0 -6 3 -8 7 -4 5 4 1 13 -8 19
-8 7 -21 21 -27 32 -10 17 -11 17 -12 3z"/>
<path d="M1299 800 c-21 -20 -31 -37 -23 -37 8 0 14 4 14 7 0 9 61 36 73 32 4
-1 7 8 6 21 0 12 -3 16 -6 10 -2 -7 -9 -13 -14 -13 -6 0 -7 5 -4 10 13 21 -12
5 -46 -30z"/>
<path d="M786 766 c11 -8 15 -18 10 -23 -5 -4 -11 -2 -13 5 -7 18 -22 14 -18
-5 2 -19 25 -19 60 0 11 6 26 10 34 8 7 -1 10 2 6 9 -4 7 -16 10 -26 7 -10 -3
-22 -1 -25 4 -3 5 -15 9 -27 9 -20 0 -20 0 -1 -14z"/>
<path d="M734 756 c-9 -8 -5 -17 15 -34 l26 -22 -26 6 c-32 7 -47 -11 -21 -25
13 -7 23 -6 31 2 10 9 15 8 25 -5 16 -21 48 -27 54 -9 3 8 0 11 -6 7 -6 -3
-12 3 -14 16 -2 15 -10 23 -23 23 -24 0 -47 13 -41 24 9 14 -8 29 -20 17z"/>
<path d="M2370 759 c0 -5 -4 -7 -10 -4 -5 3 -10 1 -10 -5 0 -6 -4 -9 -8 -6 -4
2 -14 1 -21 -3 -10 -7 -10 -9 2 -14 8 -3 30 5 48 19 22 16 27 24 16 24 -9 0
-17 -5 -17 -11z"/>
<path d="M2600 753 c0 -5 -8 -9 -17 -10 -21 -2 -41 -7 -65 -17 -28 -13 -52
-14 -72 -4 -12 7 -22 6 -30 -3 -6 -6 -6 -9 -1 -6 6 3 17 2 24 -2 9 -6 3 -10
-17 -13 -22 -3 -29 -1 -25 9 4 9 0 11 -11 7 -9 -3 -14 -10 -11 -14 3 -5 -11
-4 -31 2 -52 14 -53 3 -2 -14 39 -13 51 -13 128 5 80 18 152 23 172 11 12 -8
48 -81 48 -99 0 -20 -62 -20 -150 1 -63 14 -173 18 -215 8 -19 -5 -51 -41 -43
-49 4 -4 104 19 131 30 12 5 17 2 17 -9 0 -9 5 -16 11 -16 5 0 7 5 4 10 -9 14
10 12 89 -9 38 -10 64 -21 57 -25 -6 -4 -9 -11 -6 -16 7 -11 -22 -33 -35 -25
-6 4 -9 1 -8 -7 2 -8 -4 -12 -14 -10 -10 2 -18 -2 -18 -8 0 -5 -10 -10 -22
-10 -17 0 -19 -3 -9 -9 10 -6 1 -11 -28 -16 -22 -4 -43 -11 -47 -16 -3 -5 -10
-9 -16 -9 -6 0 -5 7 3 17 12 15 12 16 -4 10 -10 -4 -23 -7 -28 -7 -4 0 -6 -7
-2 -16 5 -15 3 -15 -20 1 -22 14 -27 14 -27 3 0 -7 -9 -14 -19 -14 -11 0 -17
4 -15 8 3 4 -1 9 -8 9 -7 1 -24 3 -37 4 -23 2 -24 2 -6 -11 16 -12 16 -14 3
-14 -26 0 -48 11 -42 21 3 5 -2 6 -10 3 -9 -3 -14 -10 -11 -14 3 -5 1 -11 -4
-14 -5 -4 -12 -2 -16 4 -3 5 -12 10 -18 10 -7 0 -6 -4 3 -10 11 -7 3 -9 -26
-7 -32 1 -40 5 -36 17 5 12 3 13 -9 3 -11 -9 -19 -9 -26 -2 -8 8 -11 6 -10 -7
2 -23 29 -39 77 -48 28 -5 31 -4 15 4 -18 9 -17 10 7 7 15 -2 25 0 22 4 -6 10
-7 10 115 15 51 1 100 5 107 8 8 3 36 8 62 12 26 3 57 12 69 20 12 8 30 14 39
14 10 0 14 5 10 15 -3 10 5 20 24 30 17 9 30 13 30 10 0 -3 9 4 20 15 11 11
20 24 20 30 0 5 10 15 23 21 l22 12 -20 -24 c-20 -24 -20 -24 0 -9 43 32 46
67 13 130 -21 39 -78 92 -78 73z"/>
<path d="M683 735 c-7 -8 -13 -19 -13 -25 0 -5 -8 -10 -18 -10 -11 0 -27 -9
-37 -20 -10 -11 -22 -20 -28 -20 -5 0 -18 -11 -29 -25 -11 -14 -24 -25 -30
-25 -6 0 -5 7 3 17 12 14 11 14 -13 -1 -15 -10 -26 -22 -23 -26 3 -4 -2 -11
-11 -14 -12 -5 -15 -2 -10 10 5 14 4 15 -8 5 -7 -6 -22 -8 -31 -4 -13 4 -16 3
-11 -5 4 -7 3 -12 -3 -12 -17 0 -24 22 -10 31 9 6 10 9 2 9 -6 0 -11 9 -10 20
1 11 6 20 11 20 5 0 7 3 4 6 -4 3 -20 -2 -38 -11 -18 -9 -29 -19 -26 -23 4 -3
12 0 18 6 7 7 17 12 22 12 6 0 0 -7 -12 -16 -13 -9 -26 -14 -29 -10 -3 3 -17
-1 -32 -8 -14 -8 -38 -13 -51 -11 -14 1 -17 0 -8 -2 10 -2 18 -9 18 -15 0 -5
-7 -7 -16 -4 -9 3 -28 9 -42 12 -20 4 -23 3 -13 -4 11 -8 9 -10 -10 -10 -50 1
-93 -12 -113 -33 l-21 -21 25 7 c14 4 26 11 28 15 2 4 12 6 22 3 10 -3 40 3
66 13 35 13 49 15 52 6 3 -9 13 -8 39 3 19 8 40 12 46 8 5 -3 7 -1 4 4 -4 6 0
14 9 17 25 10 31 7 37 -13 4 -17 13 -19 68 -16 35 1 70 -2 77 -8 9 -7 16 -7
24 1 6 6 17 8 24 5 8 -3 14 1 14 11 0 9 -3 15 -7 15 -29 -5 -33 3 -9 22 18 14
36 19 54 16 l27 -5 -22 18 -22 17 39 19 c21 10 36 23 32 28 -3 5 2 7 10 3 21
-8 30 3 17 20 -14 16 -21 16 -36 -2z"/>
<path d="M473 725 c0 -8 7 -15 14 -15 8 0 11 4 8 10 -3 6 1 7 9 4 9 -3 13 -11
10 -18 -3 -6 0 -4 8 4 7 8 22 17 33 18 39 7 28 12 -27 12 -42 0 -55 -3 -55
-15z"/>
<path d="M1345 729 c-4 -6 -13 -8 -20 -6 -8 4 -11 -2 -10 -16 4 -36 5 -37 16
-37 8 0 7 5 -1 15 -7 9 -10 18 -7 22 10 10 38 -19 33 -33 -3 -8 0 -11 10 -7
13 5 13 8 1 22 -8 9 -13 24 -12 34 4 19 -1 22 -10 6z"/>
<path d="M2030 720 c-7 -4 -19 -6 -27 -3 -7 3 -16 -2 -19 -11 -3 -9 -10 -14
-14 -11 -4 3 -18 -3 -31 -13 -72 -52 -130 -77 -141 -60 -6 10 -8 10 -8 1 0 -7
-9 -13 -19 -13 -14 0 -18 6 -15 23 2 12 2 17 -2 10 -3 -7 -11 -10 -19 -7 -7 3
-16 1 -20 -5 -3 -7 0 -8 9 -5 20 8 20 0 1 -20 -8 -8 -16 -24 -18 -35 -4 -24
-12 -34 -32 -37 -8 -1 -15 5 -16 14 0 11 -2 12 -6 4 -2 -6 -8 -10 -12 -7 -5 2
-17 -2 -27 -9 -17 -13 -16 -14 10 -9 20 4 27 2 22 -5 -5 -8 -1 -10 10 -5 12 4
15 3 10 -6 -5 -8 -18 -10 -33 -6 -20 5 -26 1 -31 -17 -5 -21 -6 -21 -13 -2 -7
17 -8 16 -9 -6 -1 -23 -2 -23 -10 -5 -5 11 -9 14 -9 8 -1 -7 -7 -13 -15 -13
-8 0 -16 -7 -20 -15 -3 -8 -17 -20 -31 -25 -15 -6 -23 -14 -20 -20 3 -5 1 -10
-6 -10 -7 0 -10 -2 -7 -5 9 -9 38 7 32 17 -4 6 2 8 15 3 11 -3 21 -2 21 3 0 6
10 8 22 4 17 -4 20 -2 15 12 -4 10 -3 15 3 11 13 -8 92 14 85 24 -3 5 6 12 20
15 14 4 25 13 25 21 0 8 9 19 20 25 14 7 20 7 20 0 0 -5 5 -10 12 -10 9 0 9 3
0 12 -28 28 -14 45 44 51 40 4 74 17 122 45 37 22 77 43 88 46 26 8 59 42 47
49 -5 3 -15 2 -23 -3z"/>
<path d="M2089 716 c9 -11 8 -14 -6 -12 -29 2 -28 -44 2 -76 14 -16 28 -28 31
-28 7 0 -17 44 -29 51 -6 4 -3 16 7 30 20 29 20 35 0 43 -14 5 -15 4 -5 -8z"/>
<path d="M334 665 c-10 -8 -27 -15 -36 -15 -23 0 -131 -41 -125 -47 8 -7 150
37 167 52 8 7 24 15 35 18 20 5 20 5 -1 6 -11 0 -29 -6 -40 -14z"/>
<path d="M1600 638 c0 -11 -8 -18 -18 -18 -10 0 -19 -7 -19 -15 0 -16 13 -20
21 -7 3 5 20 7 38 6 30 -3 31 -3 8 5 -24 9 -23 9 10 11 23 2 28 4 15 7 -11 3
-23 10 -27 17 -5 7 -8 6 -8 -4 0 -13 -1 -13 -10 0 -8 13 -10 12 -10 -2z"/>
<path d="M1135 623 c-38 -8 -75 -25 -75 -35 0 -5 -4 -7 -9 -4 -4 3 -23 -6 -41
-19 -19 -14 -44 -25 -56 -25 -29 0 -94 -61 -94 -87 0 -27 22 -44 40 -33 8 5
19 6 25 2 5 -4 22 -7 37 -8 22 -1 29 4 38 29 12 35 48 77 66 77 6 0 17 6 24
14 6 8 18 12 26 9 8 -3 14 0 14 7 0 6 4 9 9 6 5 -3 15 2 22 12 13 15 12 16 -3
3 -10 -7 -18 -10 -18 -6 0 4 -6 2 -13 -4 -8 -6 -16 -9 -19 -6 -3 3 -11 -1 -18
-10 -15 -18 -55 -21 -44 -3 5 8 2 9 -9 5 -28 -11 -19 8 11 21 15 7 38 19 52
26 36 21 106 25 102 7 -2 -11 0 -12 10 -3 8 6 25 16 39 21 19 8 13 10 -36 9
-33 0 -69 -2 -80 -5z m-171 -103 c-12 -4 -30 -19 -40 -32 -25 -30 -49 -36 -34
-9 14 27 50 51 75 50 19 0 19 0 -1 -9z m67 -8 c-5 -10 -21 -24 -35 -31 -14 -8
-23 -19 -19 -24 4 -6 1 -7 -7 -2 -8 5 -18 2 -25 -9 -12 -15 -13 -15 -18 3 -6
25 1 35 43 59 46 27 74 29 61 4z"/>
<path d="M2075 580 c-11 -5 -35 -9 -54 -9 -43 -1 -171 -32 -166 -40 2 -4 -4
-7 -13 -8 -30 -3 -112 -24 -112 -30 0 -3 11 -2 25 1 14 4 25 3 25 -1 -1 -9
-65 -43 -81 -43 -16 0 -83 -33 -91 -44 -5 -8 -8 -7 -8 0 0 8 -13 7 -42 -3 -60
-20 -73 -36 -23 -27 22 3 41 8 43 9 2 2 18 -1 37 -5 23 -5 36 -4 38 4 3 8 8 8
18 -2 7 -6 9 -12 3 -13 -128 -9 -184 -8 -184 1 0 5 -7 10 -15 10 -8 0 -15 -4
-15 -10 0 -5 5 -10 10 -10 6 0 10 -5 10 -12 0 -6 -3 -8 -7 -5 -3 4 -12 2 -19
-4 -10 -9 -15 -7 -20 5 -3 9 -11 13 -17 9 -7 -4 -26 -6 -44 -4 -17 1 -45 -5
-62 -14 -18 -9 -31 -11 -31 -5 0 6 -11 3 -25 -6 -20 -13 -25 -14 -23 -3 2 10
-8 14 -35 14 -37 1 -77 -17 -77 -34 0 -5 44 -7 98 -5 53 1 97 3 97 4 0 1 25 3
55 4 30 1 71 7 90 13 19 7 64 15 100 18 36 4 81 10 100 15 19 5 54 11 78 13
23 2 46 8 50 12 4 5 -2 5 -13 1 -16 -5 -15 -2 5 13 17 14 26 16 29 8 2 -7 9
-15 15 -19 15 -10 48 -10 42 0 -2 4 -1 14 5 22 6 11 9 8 9 -14 0 -25 3 -28 25
-24 17 4 25 1 25 -8 0 -16 -36 -19 -45 -4 -3 6 -16 10 -28 9 l-22 0 23 -11
c12 -6 22 -14 22 -18 0 -12 48 1 61 16 6 8 23 14 38 14 39 0 56 14 37 30 -9 7
-13 17 -9 24 3 6 0 6 -8 -1 -7 -7 -24 -13 -37 -13 -19 0 -23 -4 -17 -17 5 -15
4 -16 -7 -5 -16 16 -2 42 33 59 13 7 19 13 12 13 -26 0 -46 -15 -59 -44 -13
-29 -14 -29 -20 -10 -5 21 -25 26 -40 12 -3 -4 -13 -4 -22 -1 -10 4 -13 2 -8
-5 4 -7 2 -12 -3 -12 -6 0 -11 6 -11 13 1 17 26 48 33 40 4 -3 7 -1 7 5 0 12
50 27 118 35 30 4 40 2 35 -6 -4 -7 13 5 38 25 24 20 43 41 42 47 -2 6 0 10 5
10 19 -3 32 2 32 14 0 15 -27 18 -55 7z m-89 -49 c-3 -5 1 -12 10 -15 8 -3 12
-2 9 4 -3 6 4 10 17 10 22 -1 22 -1 4 -15 -11 -8 -29 -15 -40 -16 -12 0 -29
-2 -38 -4 -10 -2 -18 2 -18 8 0 6 -6 2 -14 -8 -8 -11 -19 -16 -30 -12 -9 4
-16 2 -16 -4 0 -5 -11 -14 -25 -19 -14 -5 -25 -15 -26 -22 0 -7 -4 -4 -8 7
-11 25 6 47 30 40 9 -3 20 -1 24 5 3 6 11 7 17 4 6 -4 17 1 24 11 15 20 57 29
47 11 -3 -6 3 -3 13 7 20 19 28 22 20 8z m-202 -80 c12 -19 -6 -42 -26 -35
-16 5 -19 3 -13 -7 5 -8 5 -11 0 -7 -4 4 -14 0 -21 -10 -12 -15 -13 -14 -14
11 0 17 5 27 13 26 26 -3 37 2 37 16 0 17 16 20 24 6z m-84 -43 c0 -8 -13 -13
-30 -13 -33 0 -40 11 -12 18 32 8 42 7 42 -5z"/>
<path d="M2701 552 c-16 -15 -33 -40 -36 -54 -4 -16 -12 -25 -20 -22 -18 7
-29 -14 -16 -30 7 -9 7 -16 -1 -24 -9 -9 -9 -15 1 -24 11 -11 13 -10 8 4 -3
10 0 19 10 22 9 4 13 12 8 24 -5 14 -4 15 6 5 7 -7 22 -13 34 -12 19 0 19 1
-2 11 -13 6 -23 15 -23 20 0 5 4 7 9 4 5 -4 7 3 4 15 -4 14 4 31 28 55 39 41
31 46 -10 6z"/>
<path d="M2783 545 c-13 -9 -23 -13 -23 -10 0 4 -7 0 -15 -9 -8 -8 -15 -17
-15 -21 0 -4 -7 -13 -15 -21 -12 -12 -12 -19 -2 -35 10 -16 13 -17 15 -4 2 8
7 15 12 15 5 0 12 9 15 20 8 25 22 26 29 2 4 -10 13 -19 21 -19 8 0 12 4 9 9
-3 4 1 8 8 8 19 0 41 -37 25 -43 -7 -3 -4 -6 6 -6 9 -1 17 6 17 14 0 8 -4 15
-10 15 -5 0 -10 5 -10 11 0 6 10 9 23 8 12 -2 28 0 35 5 7 4 11 3 10 -2 -2 -6
0 -10 5 -11 4 -1 7 1 7 4 0 3 0 14 0 26 0 37 -110 71 -147 44z"/>
<path d="M2201 529 c-13 -10 -29 -19 -37 -19 -7 0 -18 -8 -23 -18 -7 -14 -6
-19 4 -19 8 0 12 4 9 8 -2 4 10 10 27 14 17 4 28 9 25 12 -3 4 2 12 12 19 9 7
15 15 12 17 -3 3 -16 -3 -29 -14z"/>
<path d="M1426 485 c-11 -8 -34 -15 -50 -15 -17 0 -74 -9 -126 -21 -52 -11
-115 -24 -140 -29 -25 -6 -54 -14 -65 -19 -22 -10 -194 -51 -214 -51 -15 0
-91 -62 -167 -138 l-54 -54 19 -27 c21 -30 52 -36 123 -25 29 4 35 9 31 22 -6
15 -5 15 10 3 9 -7 14 -18 10 -24 -3 -5 -1 -7 4 -4 12 7 125 13 431 23 l212 6
-1 32 c-1 23 -3 25 -6 8 -2 -12 -8 -22 -13 -22 -5 0 -6 7 -3 17 4 11 3 14 -5
9 -7 -4 -12 -14 -12 -22 0 -8 -5 -12 -10 -9 -6 4 -8 11 -5 16 4 5 1 9 -4 9 -6
0 -11 6 -11 13 0 21 17 40 29 32 9 -5 9 -10 0 -21 -10 -12 -9 -13 5 -8 9 3 16
12 16 20 0 17 17 18 22 2 4 -10 10 -10 32 0 15 6 41 12 58 12 17 0 29 2 26 5
-6 7 -178 11 -178 5 0 -3 -18 -4 -40 -2 -23 2 -65 1 -95 -3 l-55 -6 15 -36 c8
-19 15 -36 15 -38 0 -1 -10 -1 -22 0 -12 1 -26 11 -31 23 -10 22 -37 38 -37
21 0 -6 -5 -7 -10 -4 -19 12 0 24 30 20 17 -2 30 1 30 6 0 5 -18 9 -40 9 -26
0 -40 -4 -40 -13 0 -19 20 -36 35 -31 12 5 29 -35 20 -45 -3 -2 -5 1 -5 8 0 7
-5 9 -12 5 -7 -5 -8 -3 -3 6 5 9 2 10 -11 6 -20 -6 -50 27 -39 43 3 5 -13 11
-34 13 -22 2 -37 0 -35 -3 2 -4 -3 -10 -12 -13 -21 -8 -26 -8 -20 3 3 5 -8 11
-24 13 -16 3 -31 0 -33 -5 -2 -6 -22 -10 -45 -9 -35 2 -40 -1 -35 -15 4 -11 8
-13 11 -5 6 19 24 14 20 -5 -1 -10 1 -23 4 -29 8 -13 -49 -13 -70 0 -7 4 -12
2 -12 -5 0 -8 -4 -8 -15 1 -8 7 -12 17 -9 22 4 6 10 5 15 -3 7 -12 9 -11 9 0
0 11 4 9 15 -5 14 -18 14 -17 15 13 l0 32 -32 -14 c-18 -8 -32 -20 -32 -28 1
-8 -7 -19 -17 -26 -11 -6 -19 -7 -19 -3 0 11 -40 9 -57 -1 -19 -12 -15 4 5 20
15 13 13 14 -20 8 -45 -7 -47 -1 -11 33 22 20 30 22 45 13 22 -14 28 -14 28 0
0 5 -4 7 -10 4 -5 -3 -10 -2 -10 4 0 5 -8 12 -17 14 -10 3 2 3 27 1 l45 -5
-30 16 -30 15 35 -5 c32 -5 33 -4 15 10 -19 14 -18 14 15 9 19 -3 45 -7 58
-10 12 -2 22 0 22 6 0 5 -12 10 -27 10 -16 0 -35 5 -43 11 -11 7 0 8 38 4 36
-5 52 -3 52 5 0 6 -8 10 -17 9 -10 -1 -27 -1 -38 0 -19 2 -19 2 -2 12 9 6 15
14 12 20 -9 13 103 9 146 -6 22 -8 41 -10 50 -4 11 7 9 9 -8 10 -13 1 -27 3
-33 4 -5 1 -17 3 -25 4 -8 0 -15 5 -15 10 0 5 29 7 65 6 62 -3 85 8 48 22 -15
6 -15 7 3 14 10 4 36 8 57 8 21 1 48 6 59 12 12 7 18 7 14 1 -3 -6 0 -13 6
-16 7 -3 2 -3 -11 0 -15 4 -21 2 -17 -4 3 -6 1 -14 -5 -18 -8 -4 -9 -3 -5 4 4
7 2 12 -3 12 -6 0 -11 -5 -11 -11 0 -8 -4 -8 -13 0 -10 8 -19 7 -33 -5 -18
-15 -18 -15 9 -9 26 5 27 4 21 -22 -7 -25 -6 -27 9 -14 9 7 15 17 12 21 -7 11
58 40 92 40 15 0 35 4 42 9 10 6 0 8 -27 4 -36 -5 -42 -3 -42 13 0 11 4 15 8
9 11 -16 35 -18 29 -2 -4 10 4 12 29 11 19 -2 40 3 48 11 8 8 24 15 36 15 20
0 19 -2 -7 -26 -15 -14 -23 -24 -18 -22 20 7 78 43 104 65 29 25 17 31 -13 8z
m-102 -276 c14 12 16 11 12 -10 -2 -13 1 -32 6 -41 7 -15 4 -17 -24 -14 -18 2
-34 9 -36 15 -6 17 -22 13 -22 -5 0 -14 -3 -14 -15 -4 -9 7 -14 19 -11 26 3 7
0 15 -7 17 -7 2 -9 8 -4 12 4 5 13 0 20 -9 17 -24 59 -13 51 12 -5 14 -4 14 4
3 9 -12 13 -13 26 -2z m48 -19 c-2 -17 -8 -30 -13 -30 -6 0 -8 12 -5 28 6 34
5 32 14 32 5 0 7 -13 4 -30z m-366 -13 c6 2 17 -3 24 -12 15 -18 0 -20 -19 -2
-12 10 -13 9 -7 -7 7 -19 6 -19 -13 -2 -15 14 -24 15 -40 7 -11 -6 -29 -11
-41 -11 -17 0 -19 3 -12 17 10 17 52 26 52 11 0 -5 5 -6 10 -3 6 4 7 12 3 18
-3 7 2 5 13 -4 10 -9 24 -15 30 -12z m86 -5 c7 -7 8 -15 3 -19 -4 -5 -10 -2
-12 5 -3 6 -9 12 -14 12 -6 0 -7 -4 -4 -10 3 -5 3 -10 0 -10 -8 0 -35 26 -35
34 0 9 51 -1 62 -12z"/>
<path d="M2600 475 c0 -8 -6 -12 -14 -9 -9 3 -17 -3 -21 -16 -9 -27 -5 -31 23
-23 16 4 22 13 22 34 0 16 -2 29 -5 29 -3 0 -5 -7 -5 -15z"/>
<path d="M2064 448 c-4 -7 -3 -8 4 -4 7 4 12 1 12 -8 0 -22 13 -20 35 4 10 11
15 20 10 20 -4 0 -14 -8 -22 -17 -14 -17 -14 -17 -9 0 6 19 -18 24 -30 5z"/>
<path d="M2885 434 c-16 -15 -19 -27 -14 -47 8 -31 2 -35 -17 -9 -7 9 -14 12
-14 5 0 -19 57 -56 63 -41 4 10 6 10 6 1 1 -15 -34 -35 -43 -25 -4 3 -4 -1 0
-11 8 -21 -9 -22 -26 -2 -9 10 -9 15 -1 15 6 0 11 5 11 11 0 7 -11 9 -30 5
-28 -5 -31 -3 -37 24 -6 34 -23 41 -23 10 0 -11 5 -20 11 -20 5 0 7 -4 4 -10
-3 -5 0 -10 7 -11 7 0 3 -5 -9 -11 -31 -15 -53 5 -53 48 0 26 4 32 15 28 8 -4
15 -1 15 5 0 6 -11 11 -25 11 -23 0 -25 -3 -20 -42 3 -23 10 -47 15 -53 6 -7
8 -14 5 -17 -3 -3 1 -11 10 -18 19 -15 20 -41 2 -34 -8 3 -14 -2 -14 -10 0 -8
5 -14 10 -13 5 1 12 -4 14 -10 3 -10 -2 -11 -19 -4 -13 4 -24 13 -24 20 -1 6
-3 14 -4 19 -1 4 -2 11 -1 15 1 5 -3 6 -9 2 -5 -3 -10 2 -10 12 0 14 -2 15 -9
4 -11 -17 -34 -4 -27 15 3 9 0 11 -11 7 -11 -4 -14 -2 -9 5 4 8 2 10 -7 6 -8
-3 -18 -1 -22 5 -3 6 1 11 9 11 9 0 16 6 16 14 0 8 6 17 13 19 6 3 2 6 -10 6
-15 1 -23 -5 -23 -15 0 -13 -3 -14 -13 -5 -8 6 -17 8 -20 4 -4 -3 -7 -1 -7 5
0 6 8 13 18 16 10 3 18 15 19 26 2 18 0 18 -23 -5 -14 -14 -35 -25 -47 -24
-19 1 -18 2 8 14 20 10 24 14 12 15 -10 0 -15 5 -12 10 3 6 2 10 -3 10 -5 0
-12 -9 -15 -20 -3 -11 -11 -19 -19 -17 -7 2 -10 2 -5 0 14 -9 7 -23 -13 -23
-23 0 -25 -10 -7 -29 10 -11 9 -13 -5 -8 -11 4 -17 2 -15 -5 1 -7 -8 -13 -20
-14 -13 -1 -23 4 -23 10 0 6 -5 4 -10 -4 -10 -15 11 -26 70 -35 38 -5 80 -23
80 -34 0 -5 -17 -12 -37 -16 -20 -3 -32 -10 -27 -13 5 -4 9 -14 9 -22 -1 -8 5
-22 13 -32 9 -11 10 -18 3 -23 -6 -3 -11 1 -11 9 0 9 -7 16 -15 16 -10 0 -15
10 -15 33 0 33 -1 34 -42 35 -97 1 -304 13 -316 17 -7 3 -11 1 -8 -4 10 -15
-85 -21 -150 -10 -35 6 -69 9 -76 6 -7 -3 3 -6 22 -7 l35 -2 -35 -9 c-19 -5
-46 -6 -60 -3 -20 4 -23 3 -12 -7 16 -17 15 -26 -2 -26 -8 0 -14 5 -13 11 2
11 -112 11 -193 0 -40 -5 -116 -13 -143 -13 -13 -1 -17 -7 -15 -23 4 -29 19
-28 34 2 13 25 27 12 18 -17 -6 -17 -6 -17 8 1 16 21 43 13 34 -10 -3 -7 0
-16 6 -20 7 -5 8 -2 3 6 -6 10 -4 12 9 7 10 -4 15 -3 11 3 -4 6 3 22 14 36 12
15 21 23 22 18 2 -22 8 -46 13 -52 6 -5 10 22 7 46 -1 6 3 12 9 12 5 0 10 -4
10 -10 0 -5 5 -10 11 -10 5 0 7 5 4 10 -3 6 -2 10 4 10 5 0 13 -5 16 -10 3 -6
11 -10 16 -10 6 0 7 5 4 10 -3 5 -1 10 4 10 6 0 11 -6 11 -14 0 -8 4 -16 9
-18 4 -1 12 -14 16 -28 7 -22 6 -23 -8 -12 -13 11 -21 11 -45 -2 -31 -16 -148
-16 -173 0 -8 4 -9 3 -5 -4 4 -7 2 -12 -3 -12 -6 0 -11 5 -11 10 0 6 -5 10
-11 10 -5 0 -8 -4 -5 -9 3 -5 -12 -8 -33 -7 -22 0 -37 5 -34 10 3 4 -5 5 -18
1 -23 -7 -31 -16 -30 -31 1 -9 301 -5 315 4 6 3 67 7 136 8 69 2 181 6 250 10
69 4 201 7 293 7 138 1 167 3 162 15 -3 7 -1 22 5 32 10 18 53 27 175 34 69 4
69 4 55 21 -11 13 -3 15 61 15 41 0 79 4 84 8 14 9 14 172 0 164 -5 -3 -1 4 9
16 11 12 16 25 13 29 -4 3 -7 0 -7 -8 -1 -12 -3 -11 -13 1 -10 13 -15 12 -32
-6z m15 -25 c-8 -15 -8 -24 0 -33 8 -10 7 -15 -3 -19 -17 -7 -22 54 -5 65 19
12 20 10 8 -13z m-346 -68 c11 -10 16 -10 16 -2 0 7 5 9 10 6 6 -4 8 -10 5
-14 -5 -9 68 -71 83 -71 5 0 15 -6 21 -13 9 -11 5 -14 -18 -15 -17 0 -35 6
-42 14 -9 11 -9 14 1 14 7 0 1 9 -13 20 -14 11 -29 20 -33 20 -4 0 1 -7 12
-15 18 -14 17 -14 -13 -11 -18 2 -40 10 -50 17 -15 12 -16 12 -10 -3 8 -22 3
-23 -17 -2 -12 12 -16 12 -16 2 0 -10 -3 -9 -10 2 -9 13 -11 13 -20 0 -6 -9
-10 -11 -10 -3 0 7 9 17 20 23 13 7 17 16 13 28 -6 15 -5 15 11 3 13 -11 14
-16 4 -22 -10 -7 -10 -9 2 -10 8 -1 19 -1 24 0 5 1 17 -6 28 -16 20 -17 20
-17 17 2 -3 11 -10 21 -17 21 -6 1 -16 2 -22 3 -5 0 -14 10 -20 21 -9 17 -8
20 9 17 10 -2 26 -9 35 -16z m276 -41 c13 -24 36 -26 47 -5 8 14 11 13 28 0
20 -16 20 -16 -2 -10 -23 6 -41 -9 -23 -20 6 -4 8 -11 4 -16 -3 -6 -12 -3 -21
8 -8 10 -12 12 -8 5 11 -21 -21 -24 -57 -6 -30 16 -32 16 -19 0 12 -14 12 -16
-3 -10 -9 3 -16 12 -16 20 0 8 -4 14 -10 14 -5 0 -10 4 -10 9 0 12 24 8 42 -6
19 -17 32 -19 38 -8 3 5 -4 10 -14 10 -11 0 -21 6 -24 14 -3 10 0 12 12 8 10
-4 15 -3 11 3 -3 6 -2 10 4 10 6 0 15 -9 21 -20z m-245 -50 c3 0 3 6 -1 13 -4
6 -5 10 -1 7 3 -3 6 -9 7 -15 1 -5 6 -16 12 -22 7 -9 7 -13 -2 -13 -8 0 -11
-3 -7 -6 3 -3 11 -3 17 1 8 5 8 11 -1 21 -17 21 -1 17 29 -7 26 -21 26 -21 3
-14 -14 4 -21 3 -18 -2 4 -5 1 -10 -6 -10 -7 0 -22 -3 -34 -7 -25 -8 -30 3
-11 22 8 8 5 16 -13 32 -22 19 -22 20 -2 11 12 -6 24 -11 28 -11z m-412 -37
c-3 -7 -1 -13 5 -13 6 0 13 6 16 13 5 9 7 9 12 0 4 -9 12 -8 31 4 24 16 26 16
40 -3 11 -15 16 -16 22 -6 5 8 11 14 14 15 9 3 41 -45 44 -66 4 -25 -24 -33
-46 -12 -18 15 -19 15 -23 0 -3 -15 -5 -15 -23 2 -11 10 -20 25 -20 33 0 14
-20 16 -54 4 -11 -3 -11 -7 0 -20 11 -13 11 -15 -2 -14 -28 4 -39 0 -39 -16 0
-17 -22 -13 -72 13 -32 15 -36 25 -10 22 31 -3 33 1 16 26 -9 14 -13 25 -10
25 4 0 18 -11 32 -25 27 -27 32 -29 52 -16 11 7 9 13 -8 29 l-22 20 25 -2 c15
0 23 -6 20 -13z m-218 -3 c-9 -14 8 -12 24 3 10 8 12 8 7 0 -3 -6 -2 -14 4
-18 5 -3 10 -1 10 5 0 7 6 10 13 7 6 -2 21 0 32 6 11 5 17 6 13 2 -4 -4 3 -16
15 -26 20 -18 20 -19 2 -12 -11 3 -27 11 -35 17 -13 10 -13 9 -1 -6 7 -10 10
-18 5 -18 -5 -1 2 -10 15 -21 20 -16 22 -22 11 -32 -10 -9 -11 -9 -6 0 4 7 -2
17 -13 22 -14 8 -20 7 -24 -4 -6 -15 -68 -18 -78 -3 -3 5 -18 11 -33 12 -21 3
-24 1 -15 -11 7 -7 9 -17 5 -21 -4 -4 -12 1 -18 11 -9 18 -10 18 -24 0 -7 -10
-14 -13 -14 -7 0 5 -7 19 -16 30 -8 10 -13 13 -9 7 10 -20 -6 -15 -32 9 -27
25 -29 38 -6 38 9 0 13 -3 10 -7 -4 -3 -2 -12 3 -18 13 -16 60 -7 60 11 0 8 5
14 11 14 5 0 8 -4 4 -9 -3 -5 -1 -12 5 -16 5 -3 10 0 10 8 0 16 27 30 40 22 5
-3 11 -1 15 5 3 5 8 10 11 10 3 0 2 -4 -1 -10z m409 4 c9 -3 16 -12 16 -20 0
-8 9 -13 23 -11 16 1 21 -3 19 -15 -2 -10 2 -18 9 -18 6 0 9 8 6 20 -7 28 7
25 27 -5 15 -23 15 -25 -1 -26 -33 -2 -48 2 -62 19 -12 15 -13 15 -8 -5 3 -15
1 -20 -9 -16 -8 3 -14 8 -15 12 -3 30 -10 46 -18 49 -6 2 -11 8 -11 13 0 11 3
11 24 3z m168 -42 c-4 -10 -7 -12 -10 -4 -2 7 -7 10 -11 7 -5 -2 -6 7 -3 22 5
24 6 25 18 9 7 -10 10 -25 6 -34z m-732 -37 c0 -17 -32 0 -45 25 -21 41 -19
43 15 10 17 -16 30 -32 30 -35z m434 36 c-2 -2 2 -11 9 -19 10 -13 8 -14 -12
-7 -18 5 -22 4 -16 -6 5 -8 4 -11 -1 -6 -5 5 -9 12 -9 15 0 4 -4 12 -8 18 -4
8 1 11 17 10 13 0 22 -3 20 -5z"/>
<path d="M1934 182 c3 -6 16 -8 29 -5 21 5 21 5 4 -9 -18 -14 -18 -14 0 -29
17 -13 17 -13 3 5 -14 18 -13 19 2 14 11 -5 15 -2 14 10 -2 10 -14 18 -30 20
-17 2 -26 -1 -22 -6z"/>
<path d="M2180 370 c-11 -7 -11 -10 -2 -10 7 0 11 -4 8 -9 -3 -4 -18 -6 -33
-4 -23 4 -25 2 -13 -7 12 -9 9 -10 -15 -7 -16 3 -41 9 -55 13 -22 7 -23 6 -10
-7 17 -18 87 -32 95 -20 2 5 16 6 30 4 13 -3 22 -9 19 -14 -3 -5 2 -9 10 -9
10 0 13 6 10 15 -4 8 -12 15 -20 15 -8 0 -14 5 -14 11 0 11 15 4 43 -19 9 -8
20 -13 23 -10 4 5 62 -5 105 -18 9 -2 19 2 22 10 4 10 1 13 -7 10 -8 -3 -17 0
-22 7 -4 8 -3 10 4 5 7 -4 12 -3 12 3 0 6 6 8 14 5 8 -3 17 0 22 7 5 9 9 7 15
-7 7 -17 8 -17 8 -1 1 11 6 15 13 11 6 -4 8 -3 4 4 -3 6 2 15 11 21 28 16 6
13 -26 -4 -16 -8 -31 -11 -34 -8 -4 3 -13 0 -22 -7 -8 -7 -32 -14 -52 -16 -21
-3 -46 -6 -56 -8 -9 -2 -20 2 -25 9 -4 7 -16 15 -27 17 -11 2 -19 10 -17 16 2
14 1 14 -18 2z"/>
<path d="M1790 360 c-8 -5 -10 -10 -5 -11 6 0 1 -4 -10 -8 -15 -6 -7 -9 32
-12 28 -2 49 -1 46 4 -2 4 -13 7 -25 7 -14 0 -18 5 -14 15 6 17 -2 19 -24 5z"/>
<path d="M1975 320 l-50 -7 63 0 c34 0 62 4 62 8 0 5 -6 8 -12 7 -7 0 -35 -4
-63 -8z"/>
<path d="M946 306 c3 -7 10 -13 17 -14 76 -9 101 -10 120 -2 17 7 11 9 -28 9
-28 1 -64 5 -82 10 -24 7 -31 6 -27 -3z"/>
<path d="M1665 312 c8 -9 125 -9 125 -1 0 4 -30 7 -66 7 -36 0 -63 -2 -59 -6z"/>
<path d="M895 281 c19 -8 18 -9 -4 -12 -14 -2 -27 -11 -29 -19 -4 -12 -2 -13
9 -4 8 6 26 14 42 18 37 9 34 26 -5 25 -27 0 -29 -2 -13 -8z"/>
<path d="M1431 281 c-5 -3 17 -7 50 -9 32 -1 59 2 59 7 0 9 -94 11 -109 2z"/>
<path d="M1649 281 c11 -7 9 -10 -10 -13 -13 -2 1 -4 31 -5 30 0 44 2 30 4
-14 3 -29 9 -34 14 -6 5 -15 9 -20 9 -6 0 -5 -4 3 -9z"/>
<path d="M968 273 c7 -3 10 -9 7 -14 -6 -9 124 -3 134 7 3 3 -19 4 -49 3 -30
-1 -66 0 -80 3 -14 3 -19 3 -12 1z"/>
<path d="M2003 272 c-18 -2 -33 -7 -33 -11 0 -7 134 5 155 14 10 4 -66 2 -122
-3z"/>
<path d="M1592 258 c-17 -17 17 -39 41 -27 9 6 23 7 29 3 7 -4 8 -3 4 4 -4 7
-21 12 -37 12 -18 0 -28 4 -24 10 8 14 2 13 -13 -2z"/>
<path d="M1460 254 c34 -7 110 -9 110 -2 0 5 -28 7 -62 7 -35 -1 -56 -3 -48
-5z"/>
<path d="M708 164 c12 -21 52 -26 52 -6 0 7 -6 12 -12 9 -7 -2 -21 0 -31 5
-16 8 -18 7 -9 -8z"/>
</g>
</svg>
