<?xml version="1.0" standalone="no"?>
<!DOCTYPE svg PUBLIC "-//W3C//DTD SVG 20010904//EN"
 "http://www.w3.org/TR/2001/REC-SVG-20010904/DTD/svg10.dtd">
<svg version="1.0" xmlns="http://www.w3.org/2000/svg"
 width="64.000000pt" height="64.000000pt" viewBox="0 0 64.000000 64.000000"
 preserveAspectRatio="xMidYMid meet">
<metadata>
Created by potrace 1.10, written by Peter Selinger 2001-2011
</metadata>
<g transform="translate(0.000000,64.000000) scale(0.100000,-0.100000)"
fill="#000000" stroke="none">
<path d="M134 541 c-35 -21 -94 -116 -94 -150 0 -17 6 -21 30 -21 17 0 30 5
30 10 0 6 -9 10 -20 10 -18 0 -19 3 -10 20 22 41 91 34 105 -10 4 -13 15 -20
31 -20 27 0 64 -32 64 -56 0 -15 -3 -14 -27 2 -37 24 -99 54 -113 54 -24 0 -7
-19 33 -34 23 -9 53 -24 65 -34 23 -18 23 -20 9 -53 -18 -44 -61 -64 -113 -54
-39 7 -36 21 5 27 23 3 51 32 40 42 -2 3 -24 8 -46 12 -38 6 -45 3 -73 -25
-24 -24 -31 -38 -28 -63 2 -17 9 -33 15 -36 9 -2 11 5 7 25 -7 36 27 83 61 83
34 0 41 -18 9 -22 -32 -4 -54 -32 -38 -48 15 -15 77 -24 109 -16 32 8 75 52
75 77 0 12 6 16 20 12 27 -7 52 15 48 42 -2 14 11 34 40 62 23 22 42 47 42 56
0 26 -13 20 -34 -16 l-19 -32 -7 35 c-10 55 -45 114 -61 104 -5 -3 0 -18 10
-33 22 -31 43 -109 34 -124 -3 -6 -15 13 -25 41 -26 69 -65 97 -135 97 -29 0
-53 1 -53 2 0 1 14 10 31 19 23 11 44 14 75 9 46 -6 62 8 22 19 -42 11 -83 6
-114 -13z m96 -69 c19 -11 42 -34 52 -53 20 -40 28 -120 12 -126 -7 -2 -10 5
-7 22 7 33 -20 73 -55 82 -15 3 -39 20 -55 36 -21 23 -34 28 -57 25 -32 -5
-30 8 4 22 34 14 69 11 106 -8z"/>
<path d="M354 506 c-17 -13 -16 -14 13 -20 17 -4 41 -16 53 -26 27 -23 50 -16
50 16 0 29 4 29 46 4 19 -13 35 -17 39 -11 3 6 -11 19 -32 29 -46 23 -142 27
-169 8z"/>
<path d="M570 471 c0 -5 8 -12 18 -14 16 -4 16 -5 0 -6 -19 -1 -25 -17 -8 -23
6 -2 6 -9 0 -18 -7 -12 -12 -12 -22 -2 -14 14 -48 16 -48 2 0 -5 9 -10 20 -10
11 0 20 -5 20 -11 0 -6 -7 -8 -16 -5 -9 3 -24 6 -35 6 -10 0 -28 9 -40 21 -24
24 -40 17 -21 -9 24 -33 25 -45 7 -58 -10 -8 -29 -14 -42 -14 -13 0 -23 -3
-23 -6 0 -15 32 -34 57 -34 15 0 35 -5 43 -10 11 -7 -2 -10 -43 -10 -42 0 -59
4 -63 15 -12 30 -22 14 -21 -32 2 -44 0 -48 -20 -45 -28 4 -30 -14 -3 -23 17
-5 20 -15 20 -66 0 -52 2 -59 19 -59 11 0 23 -5 26 -11 5 -7 -8 -9 -37 -7
l-43 3 -3 48 c-2 32 -8 47 -17 47 -7 0 -17 9 -20 20 -7 23 -25 27 -25 5 0 -11
-11 -15 -36 -15 -20 0 -54 -5 -76 -12 -30 -9 -44 -9 -58 0 -23 14 -36 -1 -16
-17 10 -8 156 -41 184 -41 1 0 2 -6 2 -14 0 -32 30 -46 101 -46 53 0 69 3 69
14 0 16 -26 46 -41 46 -10 0 -12 91 -3 139 6 26 11 31 35 31 20 0 29 -5 29
-16 0 -11 -6 -15 -20 -11 -13 3 -20 0 -20 -9 0 -8 7 -14 16 -14 8 0 12 -5 9
-11 -4 -6 -14 -8 -22 -5 -11 5 -13 2 -9 -10 4 -9 1 -23 -5 -31 -21 -25 0 -27
27 -2 14 13 30 43 37 66 8 30 16 43 29 43 10 0 18 -7 18 -15 0 -8 5 -15 11
-15 7 0 9 10 7 25 -4 21 -3 23 9 14 7 -7 16 -9 19 -6 11 10 -7 27 -29 28 -17
1 -18 2 -4 6 31 8 19 26 -14 19 -26 -5 -30 -3 -25 10 3 9 6 25 6 36 0 18 4 20
38 14 26 -4 45 -1 59 9 23 16 48 78 38 95 -8 13 -45 13 -45 1z m-283 -357 c4
-13 -64 -17 -72 -4 -2 4 -16 5 -30 2 -15 -2 -25 0 -25 7 0 16 122 10 127 -5z"/>
</g>
</svg>
